<svg width="256" height="53" viewBox="0 0 256 53" fill="none" xmlns="http://www.w3.org/2000/svg">
<path fill-rule="evenodd" clip-rule="evenodd" d="M146.004 30.0665C146.004 28.698 145.264 27.7856 143.743 27.7856H141.934V32.3474H143.743C145.264 32.3889 146.004 31.435 146.004 30.0665ZM141.934 22.1041V25.8365H143.414C144.606 25.8365 145.305 25.1729 145.305 23.8458C145.305 22.6847 144.606 22.1041 143.414 22.1041H141.934ZM148.922 30.1909C148.922 32.8865 146.908 34.421 144.154 34.421H137.947V34.3795C138.441 34.0063 139.139 33.0524 139.139 31.1862V23.2653C139.139 21.5649 138.605 20.5696 137.947 20.1135V20.072H143.579C146.661 20.072 148.182 21.2332 148.182 23.68C148.182 25.2559 147.031 26.5415 145.839 26.7073V26.7488C147.525 26.9976 148.922 28.5321 148.922 30.1909ZM166.967 34.3795L162.199 34.421V34.3795C162.322 33.9233 162.199 33.3427 161.747 32.5548L158.582 27.0806H159.568C161.336 27.0806 162.322 26.3756 162.322 24.5094C162.322 23.0164 161.336 22.0626 159.568 22.0626L158.13 22.1041V31.3936C158.13 33.0109 158.705 34.0063 159.157 34.3795V34.421H154.225V34.3795C154.759 34.0477 155.335 33.0109 155.335 31.3106V23.0994C155.335 21.482 154.759 20.4867 154.225 20.1135V20.072H160.02C163.309 20.072 165.2 21.7308 165.2 24.4264C165.2 26.6244 164.131 27.9515 162.405 28.5321L164.378 31.6424C165.2 32.8865 166.022 33.8818 166.967 34.3795ZM182.094 30.4812L181.518 34.5868C180.778 34.4624 180.244 34.421 179.011 34.421H171.776V34.3795C172.27 34.0477 172.886 33.0109 172.886 31.3106V23.1823C172.886 21.482 172.311 20.4867 171.776 20.1135V20.072H179.134C179.956 20.072 180.861 20.0305 181.313 19.9061L181.642 23.597H181.6C181.107 22.6017 179.997 22.0626 178.394 22.0626H175.681V25.712H177.243C178.929 25.712 179.504 25.6706 180.45 25.5462L179.874 29.0297H179.833C179.504 28.1174 178.764 27.7441 177.613 27.7441H175.722V32.3889H177.942C179.751 32.3889 181.189 31.7253 182.053 30.4397L182.094 30.4812ZM189.41 34.3795C190.068 33.633 190.232 32.5133 189.904 31.1862L187.52 22.4773C187.314 21.6479 186.862 20.5282 186.122 20.1135V20.072H191.055V20.1135C190.52 20.5696 190.274 21.5649 190.52 22.6847L191.671 27.2879C191.959 28.4077 192.082 29.403 192.164 31.0203H192.247C192.658 29.32 193.233 27.993 193.685 27.0806L195.864 22.5602C196.398 21.3991 196.686 20.6111 196.85 19.9476H196.974C197.179 20.5696 197.385 21.3576 197.96 22.5188L199.933 26.4585C200.92 28.4491 201.249 29.6103 201.536 31.0203H201.618C201.701 29.4444 201.947 28.0344 202.235 26.8318L203.222 22.7261C203.509 21.6064 203.222 20.6526 202.728 20.1549L202.769 20.1135H207.291V20.1549C206.551 20.5696 206.099 21.6894 205.893 22.5602L203.838 31.2692C203.509 32.6792 203.715 33.633 204.29 34.4624V34.421H199.522V34.3795C199.851 33.7989 199.892 32.8451 199.399 31.8083L197.919 28.5735C197.467 27.6197 197.097 26.2926 196.974 25.4217H196.891C196.645 26.5 196.316 27.3709 195.987 28.1174L194.261 31.8083C193.809 32.8451 193.767 33.7989 194.178 34.3795V34.421L189.41 34.3795ZM222.253 30.4812L221.678 34.5868C220.938 34.4624 220.403 34.421 219.17 34.421H211.936V34.3795C212.429 34.0477 213.046 33.0109 213.046 31.3106V23.1823C213.046 21.482 212.47 20.4867 211.936 20.1135V20.072H219.293C220.116 20.072 221.02 20.0305 221.472 19.9061L221.801 23.597H221.76C221.266 22.6017 220.157 22.0626 218.554 22.0626H215.841V25.712H217.403C219.088 25.712 219.663 25.6706 220.609 25.5462L220.033 29.0297H219.992C219.663 28.1174 218.924 27.7441 217.773 27.7441H215.882V32.3889H218.101C219.91 32.3889 221.308 31.7253 222.253 30.4812ZM240.092 34.3795L235.324 34.421V34.3795C235.407 33.9233 235.324 33.3427 234.872 32.5548L231.707 27.0806H232.694C234.461 27.0806 235.448 26.3756 235.448 24.5094C235.448 23.0164 234.461 22.0626 232.694 22.0626L231.255 22.1041V31.3936C231.255 33.0109 231.83 34.0063 232.283 34.3795V34.421H227.35V34.3795C227.884 34.0477 228.46 33.0109 228.46 31.3106V23.0994C228.46 21.482 227.884 20.4867 227.35 20.1135V20.072H233.146C236.434 20.072 238.325 21.7308 238.325 24.4264C238.325 26.6244 237.256 27.9515 235.53 28.5321L237.503 31.6424C238.325 32.8865 239.147 33.8818 240.092 34.3795ZM256 20.072V20.1135C255.507 20.4867 254.89 21.3576 254.356 22.2285L250.492 28.6565V31.1447C250.492 32.928 251.067 34.0063 251.725 34.3795V34.421H246.423V34.3795C246.998 34.0477 247.656 32.928 247.656 31.1447V28.7394L243.71 22.187C243.175 21.3576 242.559 20.4867 242.065 20.072V20.0305H246.423V20.072C246.258 20.6111 246.505 21.482 246.875 22.187L248.437 24.9241C248.642 25.2973 248.848 25.6706 249.053 26.2512H249.135C249.341 25.6706 249.588 25.2973 249.793 24.9241L251.355 22.187C251.725 21.5235 252.013 20.6526 251.807 20.072V20.0305H256V20.072Z" fill="#004F40"/>
<path fill-rule="evenodd" clip-rule="evenodd" d="M3.82262 16.547C3.74041 16.547 3.6582 16.6299 3.6582 16.7128V36.619C3.6582 44.4155 18.8258 52.2535 20.2645 53C20.3467 53.0415 20.4289 53.0415 20.47 53C21.9087 52.2535 37.0763 44.4155 37.0763 36.619V16.7128C37.0763 16.6299 36.9941 16.547 36.9119 16.547H3.82262Z" fill="#C08961"/>
<path fill-rule="evenodd" clip-rule="evenodd" d="M20.4292 52.3779C20.3881 52.4194 20.3059 52.4194 20.2648 52.3779C17.9629 51.1753 4.19287 43.7519 4.19287 36.6189V17.2105C4.19287 17.169 4.23398 17.0861 4.31619 17.0861H36.4189C36.4601 17.0861 36.5423 17.1275 36.5423 17.2105V36.6189C36.5423 43.7519 22.7311 51.2167 20.4292 52.3779Z" fill="#004F40"/>
<path fill-rule="evenodd" clip-rule="evenodd" d="M20.3881 50.3459C20.347 50.3459 20.347 50.3459 20.3059 50.3459C14.3868 47.1941 6.00146 41.1807 6.00146 36.6189V18.9523C6.00146 18.9108 6.04257 18.9108 6.04257 18.9108H34.6514C34.6925 18.9108 34.6925 18.9523 34.6925 18.9523V36.5775C34.7336 41.1807 26.3483 47.1941 20.3881 50.3459Z" fill="#C08961"/>
<path fill-rule="evenodd" clip-rule="evenodd" d="M20.388 50.0556H20.3469C14.1401 46.7379 6.28906 40.8075 6.28906 36.619V19.2011H34.4047V36.619C34.4458 40.849 26.5948 46.7379 20.388 50.0556Z" fill="#83182D"/>
<path fill-rule="evenodd" clip-rule="evenodd" d="M34.4458 28.3247V19.2011H6.28906V28.3247H34.4458Z" fill="white"/>
<path fill-rule="evenodd" clip-rule="evenodd" d="M20.1414 46.4061C19.8537 46.2817 19.6892 46.1988 19.607 46.1988H19.5659C19.5659 46.2402 19.6481 46.4061 19.8125 46.4891C19.977 46.6135 20.1414 46.6135 20.2236 46.6135C20.2647 46.6135 20.2647 46.6135 20.2647 46.6135C20.3469 46.572 20.3058 46.4891 20.1414 46.4061Z" fill="#C08961"/>
<path fill-rule="evenodd" clip-rule="evenodd" d="M19.5246 46.489C19.5657 46.489 19.5657 46.489 19.5657 46.489C19.5657 46.4476 19.5657 46.4061 19.4424 46.2817C19.1958 46.0743 19.0724 45.9914 19.0313 45.9499H18.9902C18.9902 45.9914 18.9902 46.1573 19.1547 46.2817C19.278 46.4476 19.4424 46.4476 19.5246 46.489Z" fill="#C08961"/>
<path fill-rule="evenodd" clip-rule="evenodd" d="M18.8669 46.1988C18.9081 46.1988 18.9081 46.1988 18.9081 46.1988C18.9492 46.1573 18.9492 46.1158 18.8669 45.9499C18.7025 45.7011 18.5792 45.5767 18.5792 45.5352C18.5792 45.5352 18.5381 45.4937 18.5381 45.5352C18.5381 45.5767 18.497 45.7426 18.5792 45.9085C18.6614 46.0743 18.7847 46.1573 18.8669 46.1988Z" fill="#C08961"/>
<path fill-rule="evenodd" clip-rule="evenodd" d="M18.3325 45.7426L18.3736 45.7841C18.4147 45.7841 18.4147 45.7011 18.3736 45.5352C18.3325 45.3693 18.2092 45.162 18.1681 45.079C18.1681 45.079 18.127 45.0376 18.127 45.079C18.0859 45.1205 18.0448 45.2449 18.0859 45.4523C18.1681 45.5352 18.2503 45.6596 18.3325 45.7426Z" fill="#C08961"/>
<path fill-rule="evenodd" clip-rule="evenodd" d="M17.9217 45.162C17.9217 45.2035 17.9628 45.2035 17.9217 45.162C18.0039 45.2035 18.045 45.1205 18.0039 44.9961C17.9628 44.8302 17.9628 44.5814 17.9217 44.4984C17.9217 44.4984 17.9217 44.457 17.8806 44.457C17.8394 44.4984 17.7983 44.6229 17.7983 44.7887C17.7983 44.9546 17.8805 45.1205 17.9217 45.162Z" fill="#C08961"/>
<path fill-rule="evenodd" clip-rule="evenodd" d="M17.7161 44.5814C17.7572 44.5814 17.7983 44.5399 17.7983 44.374C17.7983 44.2081 17.7983 44.0008 17.8394 43.8764V43.8349C17.7983 43.8764 17.7161 43.9593 17.6749 44.1252C17.6338 44.3326 17.6338 44.4984 17.7161 44.5814C17.6749 44.5814 17.6749 44.5814 17.7161 44.5814Z" fill="#C08961"/>
<path fill-rule="evenodd" clip-rule="evenodd" d="M17.7984 43.3787C17.7984 43.3787 17.7984 43.3373 17.7984 43.3787C17.7573 43.3787 17.634 43.4617 17.5929 43.5861C17.5518 43.7105 17.5518 43.8764 17.5518 43.9178C17.5518 43.9593 17.5518 43.9593 17.5929 43.9593C17.634 43.9593 17.6751 43.9593 17.7162 43.7934C17.7573 43.669 17.7984 43.4617 17.7984 43.3787Z" fill="#C08961"/>
<path fill-rule="evenodd" clip-rule="evenodd" d="M17.7162 43.2543C17.7984 43.1299 17.8395 42.9225 17.8806 42.8396V42.7981C17.8395 42.7981 17.7162 42.8811 17.634 43.0055C17.5518 43.1299 17.5518 43.2543 17.5518 43.3373C17.5518 43.3787 17.5518 43.3787 17.5518 43.3787C17.5929 43.3787 17.634 43.3787 17.7162 43.2543Z" fill="#C08961"/>
<path fill-rule="evenodd" clip-rule="evenodd" d="M19.8124 46.6964C19.6069 46.7379 19.4425 46.8208 19.4014 46.8623C19.4014 46.8623 19.4014 46.8623 19.4425 46.9038C19.5658 46.9452 19.8946 46.9867 20.1001 46.9038C20.3057 46.8623 20.3057 46.7794 20.3057 46.7379L20.2646 46.6964C20.1824 46.6549 20.0179 46.6549 19.8124 46.6964Z" fill="#C08961"/>
<path fill-rule="evenodd" clip-rule="evenodd" d="M19.5658 46.572C19.5658 46.572 19.5658 46.5305 19.5247 46.5305C19.4425 46.489 19.2781 46.4476 19.1137 46.4476C18.9082 46.4061 18.7437 46.4476 18.7026 46.489C18.7026 46.489 18.7026 46.489 18.7437 46.5305C18.8671 46.572 19.1548 46.6964 19.3603 46.6964C19.5247 46.6549 19.5247 46.6134 19.5658 46.572Z" fill="#C08961"/>
<path fill-rule="evenodd" clip-rule="evenodd" d="M18.867 46.2817C18.867 46.2817 18.867 46.2402 18.8259 46.2402C18.7848 46.1987 18.6204 46.1158 18.456 46.0329C18.2504 45.9499 18.1271 45.9499 18.0449 45.9499V45.9914C18.1271 46.0743 18.3738 46.2817 18.5793 46.3232C18.7848 46.3232 18.867 46.2817 18.867 46.2817Z" fill="#C08961"/>
<path fill-rule="evenodd" clip-rule="evenodd" d="M18.2914 45.784V45.7426C18.2503 45.6596 18.127 45.5767 18.0036 45.4523C17.8392 45.3278 17.7159 45.2864 17.6748 45.2864C17.6748 45.2864 17.6748 45.2864 17.6748 45.3279C17.757 45.4108 17.9214 45.6596 18.0859 45.7426C18.2503 45.867 18.2914 45.8255 18.2914 45.784Z" fill="#C08961"/>
<path fill-rule="evenodd" clip-rule="evenodd" d="M17.8805 45.2449V45.2034C17.8394 45.1205 17.7571 44.9961 17.6749 44.8717C17.5516 44.7472 17.4283 44.6643 17.3872 44.6643C17.3872 44.6643 17.3872 44.6643 17.3872 44.7058C17.4283 44.7887 17.5516 45.079 17.6749 45.2034C17.7983 45.2864 17.8805 45.2449 17.8805 45.2449Z" fill="#C08961"/>
<path fill-rule="evenodd" clip-rule="evenodd" d="M17.634 44.6229V44.5814C17.634 44.4984 17.5929 44.374 17.5107 44.2496C17.4285 44.0837 17.3463 44.0008 17.3052 44.0008C17.3052 44.0008 17.3052 44.0008 17.3052 44.0423C17.3052 44.1667 17.3874 44.4155 17.5107 44.5399C17.5518 44.6229 17.634 44.6229 17.634 44.6229Z" fill="#C08961"/>
<path fill-rule="evenodd" clip-rule="evenodd" d="M17.5108 44.0008V43.9593C17.5108 43.8764 17.4697 43.752 17.4286 43.5861C17.3875 43.4202 17.2642 43.3372 17.2642 43.2958C17.2642 43.2958 17.2642 43.2958 17.2642 43.3372C17.2642 43.4202 17.3053 43.7105 17.3464 43.8349C17.4286 44.0008 17.4697 44.0008 17.5108 44.0008Z" fill="#C08961"/>
<path fill-rule="evenodd" clip-rule="evenodd" d="M17.5106 43.3787C17.5517 43.2958 17.5517 43.1299 17.5106 43.0055C17.4695 42.8396 17.4284 42.7567 17.3873 42.7152C17.3873 42.7152 17.3873 42.7152 17.3873 42.7566C17.3462 42.8396 17.3462 43.0884 17.3873 43.2543C17.4284 43.3787 17.4695 43.3787 17.5106 43.3787Z" fill="#C08961"/>
<path fill-rule="evenodd" clip-rule="evenodd" d="M17.5928 42.964C17.6339 42.9225 17.675 42.8396 17.7162 42.6322C17.7573 42.4249 17.7984 42.2175 17.7984 42.1346C17.7573 42.2175 17.6339 42.3834 17.5928 42.5908C17.5517 42.7981 17.5517 42.9225 17.5928 42.964Z" fill="#C08961"/>
<path fill-rule="evenodd" clip-rule="evenodd" d="M20.8811 46.4891C21.0455 46.3646 21.1278 46.2402 21.1278 46.1988C21.1278 46.1988 21.1278 46.1988 21.0867 46.1988C21.0455 46.1988 20.8811 46.2817 20.5523 46.4061C20.3879 46.4891 20.3468 46.572 20.3879 46.6135H20.429C20.5112 46.6135 20.7167 46.6135 20.8811 46.4891Z" fill="#C08961"/>
<path fill-rule="evenodd" clip-rule="evenodd" d="M21.21 46.489C21.2923 46.4476 21.4567 46.4061 21.58 46.2817C21.7033 46.1158 21.7444 45.9914 21.7444 45.9499C21.7444 45.9499 21.7444 45.9499 21.7033 45.9499C21.6622 45.9914 21.5389 46.0743 21.2923 46.2817C21.1689 46.4061 21.1689 46.489 21.1689 46.489C21.1689 46.489 21.1689 46.489 21.21 46.489Z" fill="#C08961"/>
<path fill-rule="evenodd" clip-rule="evenodd" d="M21.8674 46.1987C21.9085 46.1573 22.0729 46.0743 22.1552 45.9085C22.2374 45.7426 22.2374 45.6182 22.1963 45.5352C22.1963 45.5352 22.1963 45.5352 22.1552 45.5352C22.1141 45.5767 22.0318 45.7011 21.8674 45.9499C21.7852 46.0743 21.7852 46.1573 21.8263 46.1987C21.8263 46.1987 21.8263 46.1987 21.8674 46.1987Z" fill="#C08961"/>
<path fill-rule="evenodd" clip-rule="evenodd" d="M22.4022 45.7425C22.4433 45.7011 22.5667 45.5767 22.6078 45.4108C22.6489 45.2449 22.6078 45.1205 22.5667 45.0375C22.5667 45.0375 22.5667 45.0375 22.5256 45.0375C22.4844 45.1205 22.4022 45.3693 22.32 45.4937C22.2789 45.6596 22.32 45.7011 22.32 45.7425C22.3611 45.7425 22.4022 45.7425 22.4022 45.7425Z" fill="#C08961"/>
<path fill-rule="evenodd" clip-rule="evenodd" d="M22.7722 45.2034C22.8544 45.1205 22.9366 44.9546 22.8955 44.7887C22.8955 44.6229 22.8133 44.4984 22.8133 44.457C22.8133 44.457 22.8133 44.457 22.7722 44.4984C22.731 44.5814 22.731 44.8302 22.6899 44.9961C22.6899 45.162 22.731 45.2034 22.7722 45.2034Z" fill="#C08961"/>
<path fill-rule="evenodd" clip-rule="evenodd" d="M22.8955 43.9178C22.8955 44.0008 22.8955 44.2496 22.9366 44.4155C22.9777 44.5814 23.0188 44.5814 23.0188 44.6229C23.0188 44.6229 23.0599 44.6229 23.0599 44.5814C23.101 44.4984 23.101 44.374 23.101 44.2081C23.0599 44.0423 22.9366 43.9178 22.8955 43.9178Z" fill="#C08961"/>
<path fill-rule="evenodd" clip-rule="evenodd" d="M23.142 44.0008C23.142 44.0008 23.142 43.9593 23.142 44.0008C23.1832 43.8764 23.1832 43.752 23.142 43.6276C23.1009 43.4617 22.9776 43.4202 22.9365 43.3787C22.9365 43.3787 22.9365 43.3787 22.9365 43.4202C22.9365 43.5031 22.9776 43.7105 23.0187 43.8764C23.0598 43.9593 23.1009 44.0008 23.142 44.0008Z" fill="#C08961"/>
<path fill-rule="evenodd" clip-rule="evenodd" d="M23.1418 43.3787C23.1829 43.3787 23.1829 43.3787 23.1418 43.3787C23.1418 43.2958 23.1418 43.1299 23.0596 43.0055C22.9774 42.8811 22.8541 42.8396 22.813 42.7981C22.813 42.7981 22.813 42.7981 22.813 42.8396C22.8541 42.9225 22.8952 43.1299 22.9774 43.2543C23.1007 43.3787 23.1418 43.3787 23.1418 43.3787Z" fill="#C08961"/>
<path fill-rule="evenodd" clip-rule="evenodd" d="M20.4288 46.6549C20.3877 46.6549 20.3877 46.6549 20.3877 46.6964C20.3877 46.7379 20.3877 46.8208 20.5932 46.8623C20.7987 46.9452 21.1276 46.9038 21.2509 46.8623C21.292 46.8623 21.292 46.8208 21.292 46.8208C21.2509 46.7794 21.0865 46.6964 20.881 46.6549C20.7165 46.6549 20.511 46.6549 20.4288 46.6549Z" fill="#C08961"/>
<path fill-rule="evenodd" clip-rule="evenodd" d="M21.21 46.5305C21.1689 46.5305 21.1689 46.572 21.1689 46.572C21.1689 46.6135 21.21 46.6549 21.4156 46.6549C21.6211 46.6549 21.9499 46.5305 22.0321 46.489C22.0732 46.489 22.0732 46.4476 22.0732 46.4476C22.0321 46.4476 21.8677 46.4061 21.6622 46.4061C21.4567 46.4476 21.2923 46.489 21.21 46.5305Z" fill="#C08961"/>
<path fill-rule="evenodd" clip-rule="evenodd" d="M21.9088 46.1987C21.8677 46.1987 21.8677 46.2402 21.8677 46.2402C21.8677 46.2817 21.9088 46.3232 22.1143 46.2817C22.3198 46.2402 22.5665 46.0329 22.6487 45.9499C22.6487 45.9499 22.6898 45.9084 22.6487 45.9084C22.6076 45.9084 22.4431 45.9084 22.2376 45.9914C22.1143 46.0743 21.9499 46.1573 21.9088 46.1987Z" fill="#C08961"/>
<path fill-rule="evenodd" clip-rule="evenodd" d="M22.4431 45.7426C22.4431 45.784 22.402 45.784 22.4431 45.784C22.4431 45.8255 22.5253 45.8255 22.6897 45.7426C22.8541 45.6596 23.0596 45.4108 23.1007 45.3279V45.2864C23.0596 45.2864 22.8952 45.3278 22.7719 45.4523C22.6075 45.5767 22.4842 45.7011 22.4431 45.7426Z" fill="#C08961"/>
<path fill-rule="evenodd" clip-rule="evenodd" d="M23.0595 44.8717C22.9362 44.9961 22.854 45.1205 22.854 45.2034C22.854 45.2449 22.854 45.2449 22.854 45.2449C22.8951 45.2449 22.9362 45.2864 23.0595 45.162C23.2239 45.0375 23.3062 44.7887 23.3473 44.6643V44.6228C23.3062 44.6643 23.1828 44.7058 23.0595 44.8717Z" fill="#C08961"/>
<path fill-rule="evenodd" clip-rule="evenodd" d="M23.2651 44.4984C23.3884 44.3326 23.4295 44.0837 23.4706 44.0008V43.9593C23.4295 44.0008 23.3473 44.0837 23.2651 44.2081C23.1829 44.3326 23.1418 44.4984 23.1418 44.5399C23.1418 44.5814 23.1418 44.5814 23.1418 44.5814C23.1007 44.6229 23.1829 44.6229 23.2651 44.4984Z" fill="#C08961"/>
<path fill-rule="evenodd" clip-rule="evenodd" d="M23.1831 43.9593C23.1831 44.0008 23.1831 44.0008 23.1831 44.0008C23.2242 44.0008 23.2653 44.0008 23.3475 43.8349C23.4297 43.669 23.4297 43.4202 23.4297 43.3372V43.2958C23.3886 43.3372 23.3064 43.4202 23.2653 43.5861C23.2242 43.752 23.1831 43.8764 23.1831 43.9593Z" fill="#C08961"/>
<path fill-rule="evenodd" clip-rule="evenodd" d="M23.2242 43.3787C23.2653 43.3787 23.3064 43.3787 23.3475 43.2128C23.3886 43.0469 23.3886 42.7981 23.3475 42.7152V42.6737C23.3064 42.7152 23.2653 42.7981 23.2242 42.964C23.1831 43.1714 23.1831 43.2958 23.2242 43.3787Z" fill="#C08961"/>
<path fill-rule="evenodd" clip-rule="evenodd" d="M23.142 42.964C23.1832 42.9225 23.1832 42.7981 23.142 42.6322C23.1009 42.4249 22.9776 42.259 22.9365 42.1761C22.9365 42.259 22.9776 42.4664 23.0187 42.6737C23.0187 42.8396 23.1009 42.9225 23.142 42.964Z" fill="#C08961"/>
<path fill-rule="evenodd" clip-rule="evenodd" d="M19.7303 41.9272L19.5658 41.8443L19.3192 41.9272L19.1548 42.1346L19.648 42.0102L19.7303 41.9272Z" fill="#C08961"/>
<path fill-rule="evenodd" clip-rule="evenodd" d="M19.319 42.3834L19.2368 42.5493L19.5245 42.8396L20.2233 42.6322L20.3055 42.3834L20.2644 42.259H20.1822V42.4249L19.5245 42.5908L19.3601 42.3834L19.4423 42.1761H19.4012L19.319 42.3419V42.3834Z" fill="#C08961"/>
<path fill-rule="evenodd" clip-rule="evenodd" d="M19.8948 42.964V42.8811H19.8126L19.7715 43.1714L20.347 43.5861L20.9635 43.1714L20.9224 42.8811H20.8402V42.964L20.347 43.2958L19.8948 42.964Z" fill="#C08961"/>
<path fill-rule="evenodd" clip-rule="evenodd" d="M20.0178 41.8443L19.9355 42.0102L20.3466 42.1346L20.7576 42.0102L20.7165 41.8443L20.6754 41.8028L20.3466 41.9272L20.0589 41.8028L20.0178 41.8443Z" fill="#C08961"/>
<path fill-rule="evenodd" clip-rule="evenodd" d="M19.7303 41.7614L20.2647 41.5955V41.3466L20.1824 41.3052V41.3466L19.7303 41.4711L19.6481 41.3881L19.3604 41.5955H19.4837L19.7303 41.7614Z" fill="#C08961"/>
<path fill-rule="evenodd" clip-rule="evenodd" d="M18.8259 43.0055L18.867 43.3787L18.9492 43.3372L19.4424 43.1299L19.5246 43.0055L19.3602 42.8811L18.9492 43.0884L18.9081 42.6737L18.7848 42.8811L18.7437 42.964L18.8259 42.9225V43.0055Z" fill="#C08961"/>
<path fill-rule="evenodd" clip-rule="evenodd" d="M21.7031 43.4617L21.7442 43.6276L21.9909 43.752V43.6276L21.7031 43.4617Z" fill="#C08961"/>
<path fill-rule="evenodd" clip-rule="evenodd" d="M20.5525 42.4249L20.5114 42.259H20.4703L20.4292 42.3834L20.4703 42.6322L21.2102 42.8396L21.4979 42.5493L21.4157 42.3834L21.3746 42.3419L21.3335 42.1761H21.2924L21.3746 42.3834L21.1691 42.5908L20.5525 42.4249Z" fill="#C08961"/>
<path fill-rule="evenodd" clip-rule="evenodd" d="M21.8676 43.3787L21.9087 43.0055V42.9225L21.9909 42.964L21.9498 42.8811L21.8265 42.6737L21.7854 43.0884L21.3744 42.8811L21.21 43.0055L21.2922 43.1299L21.7854 43.3372L21.8676 43.3787Z" fill="#C08961"/>
<path fill-rule="evenodd" clip-rule="evenodd" d="M18.7437 43.6276V43.752L18.9903 43.6276L19.0314 43.4617L18.7437 43.6276Z" fill="#C08961"/>
<path fill-rule="evenodd" clip-rule="evenodd" d="M19.2368 42.259L19.2779 42.2175L19.1135 42.3005L19.0313 42.3834L18.908 42.4249L18.7847 42.5908L19.0313 42.5493L19.2368 42.259Z" fill="#C08961"/>
<path fill-rule="evenodd" clip-rule="evenodd" d="M21.0046 41.7614L21.2512 41.5955H21.3745L21.0868 41.3881L21.0046 41.4711L20.5524 41.3466V41.3052L20.4702 41.3466V41.5955L21.0046 41.7614Z" fill="#C08961"/>
<path fill-rule="evenodd" clip-rule="evenodd" d="M21.0044 41.9272L21.0455 42.0102L21.5799 42.1346L21.4154 41.9272L21.1277 41.8443L21.0044 41.9272Z" fill="#C08961"/>
<path fill-rule="evenodd" clip-rule="evenodd" d="M21.4976 42.259L21.7032 42.5493L21.9498 42.5908L21.8265 42.4249L21.7032 42.3834L21.621 42.3005L21.4565 42.2175L21.4976 42.259Z" fill="#C08961"/>
<path fill-rule="evenodd" clip-rule="evenodd" d="M22.0319 43.9178L21.9908 43.8764L21.9086 43.8349V43.9593C21.9086 44.0422 21.8675 44.1252 21.8675 44.2081C21.8675 44.2911 21.8264 44.374 21.8264 44.457C21.7853 44.5814 21.7442 44.7058 21.7031 44.8302L21.6209 44.7473L21.5387 44.7058L21.4976 44.7887C21.4565 44.8717 21.4154 44.9131 21.4154 44.9961C21.3743 45.079 21.3332 45.1205 21.2921 45.2034C21.2098 45.3278 21.1276 45.4108 21.0454 45.5352L21.0043 45.4937L20.9632 45.4523L20.9221 45.4108C20.9221 45.4108 20.9221 45.4108 20.881 45.3693L20.8399 45.3278L20.7988 45.4108C20.7577 45.4523 20.7577 45.5352 20.7166 45.5767C20.6755 45.6181 20.6755 45.7011 20.6344 45.7426C20.5933 45.784 20.5522 45.8255 20.5522 45.9084C20.5111 45.9499 20.5111 45.9914 20.47 46.0329C20.4289 45.9914 20.4289 45.9499 20.3878 45.9084L20.3055 45.7426C20.2644 45.7011 20.2233 45.6596 20.2233 45.5767C20.1822 45.5352 20.1822 45.4523 20.1411 45.4108L20.1 45.3278L20.0589 45.3693C20.0589 45.3693 20.0589 45.3693 20.0178 45.4108L19.9767 45.4523L19.9356 45.4937L19.8945 45.5352C19.8123 45.4523 19.7301 45.3278 19.6479 45.2034C19.6068 45.1205 19.5657 45.079 19.5246 44.9961C19.4835 44.9131 19.4423 44.8717 19.4423 44.7887L19.4012 44.7058L19.319 44.7473L19.2368 44.8302C19.1957 44.7058 19.1546 44.5814 19.1135 44.457C19.0724 44.374 19.0724 44.2911 19.0724 44.2081C19.0724 44.1252 19.0313 44.0422 19.0313 43.9593V43.8349L18.9491 43.8764C18.908 43.8764 18.908 43.9178 18.908 43.9178L18.8669 43.9593H18.8258C18.8258 43.9178 18.8258 43.8764 18.8258 43.8349C18.8258 43.7519 18.8258 43.669 18.8258 43.5861C18.8258 43.5031 18.8258 43.4202 18.8669 43.3372C18.8669 43.2958 18.8669 43.2543 18.908 43.2128C18.908 43.1713 18.908 43.1299 18.9491 43.0884L18.9902 42.964H18.8669H18.7436C18.7847 42.8811 18.7847 42.7981 18.8258 42.7152C18.8669 42.5908 18.908 42.5078 18.9902 42.3834C19.0313 42.259 19.1135 42.176 19.1957 42.0931C19.2368 42.0516 19.2779 42.0102 19.319 41.9687C19.3601 41.9272 19.3601 41.9272 19.3601 41.9272C19.4012 41.9272 19.4012 41.8857 19.4423 41.8857L19.6068 41.7613L19.4012 41.7199L19.319 41.6784C19.3601 41.6369 19.4012 41.5955 19.4423 41.5955C19.5246 41.5125 19.6068 41.471 19.689 41.4296C19.7301 41.3466 19.8123 41.3052 19.8534 41.2637C19.9356 41.2222 19.9767 41.1807 20.0589 41.1393C20.0589 41.1393 20.1 41.1393 20.1 41.0978L20.5933 41.2222L21.0865 41.0978C21.0865 41.0978 21.1276 41.0978 21.1276 41.1393C21.2098 41.1807 21.251 41.2222 21.3332 41.2637C21.4154 41.3052 21.4565 41.3881 21.4976 41.4296C21.5798 41.471 21.662 41.5125 21.7442 41.5955C21.7853 41.6369 21.8264 41.6784 21.8675 41.6784L21.7853 41.7199L21.6209 41.7613L21.7853 41.8857C21.8264 41.8857 21.8264 41.9272 21.8675 41.9272L21.9086 41.9687C21.9497 42.0102 21.9908 42.0516 22.0319 42.0931C22.1142 42.176 22.1553 42.3005 22.2375 42.3834C22.2786 42.5078 22.3608 42.5908 22.4019 42.7152C22.443 42.7981 22.443 42.8811 22.4841 42.964H22.3608H22.2375L22.2786 43.0884C22.2786 43.1299 22.3197 43.1713 22.3197 43.2128C22.3197 43.2543 22.3197 43.2958 22.3608 43.3372C22.3608 43.4202 22.4019 43.5031 22.4019 43.5861C22.4019 43.669 22.4019 43.7519 22.4019 43.8349C22.4019 43.8764 22.4019 43.9178 22.4019 43.9593C22.073 43.9593 22.0319 43.9178 22.0319 43.9178ZM22.4019 43.2128V43.1299C22.3608 43.0055 22.3608 42.8811 22.2786 42.7566C22.2375 42.6322 22.1964 42.5078 22.1142 42.3834C22.073 42.259 21.9908 42.176 21.9086 42.0516C21.8675 42.0102 21.8264 41.9687 21.7853 41.8857C21.8264 41.8857 21.8264 41.8857 21.8675 41.8857L21.9908 41.8443L21.9086 41.7199C21.8264 41.6369 21.7442 41.554 21.662 41.471C21.5798 41.3881 21.4976 41.3466 21.4154 41.3052C21.3743 41.2222 21.2921 41.1807 21.2098 41.0978C21.1276 41.0149 21.0454 40.9734 20.9632 40.9319C20.881 40.8904 20.7988 40.849 20.7166 40.849C20.6755 40.849 20.6344 40.8075 20.5933 40.8075C20.5522 40.8075 20.5522 40.8075 20.5111 40.8075H20.47C20.47 40.7246 20.4289 40.5587 20.47 40.3928C20.47 40.3513 20.4289 40.3513 20.3878 40.3513H20.3467C20.3055 40.3513 20.2644 40.3513 20.2644 40.3928C20.3055 40.5587 20.3055 40.7246 20.2644 40.8075H20.2233C20.1822 40.8075 20.1822 40.8075 20.1411 40.8075C20.1 40.8075 20.0589 40.8075 20.0178 40.849C19.9356 40.8904 19.8534 40.8904 19.7712 40.9319C19.689 40.9734 19.6068 41.0149 19.5246 41.0978C19.4423 41.1393 19.4012 41.2222 19.319 41.3052C19.2368 41.3466 19.1546 41.4296 19.0724 41.471C18.9902 41.554 18.908 41.6369 18.8258 41.7199L18.7436 41.8443L18.8669 41.8857C18.908 41.8857 18.908 41.8857 18.9491 41.8857C18.908 41.9272 18.8669 41.9687 18.8258 42.0516C18.7436 42.176 18.6614 42.259 18.6203 42.3834C18.5791 42.5078 18.4969 42.6322 18.4558 42.7566C18.4147 42.8811 18.3736 43.0055 18.3325 43.1299V43.2128H18.4147H18.538C18.538 43.2543 18.538 43.2958 18.4969 43.3372C18.4969 43.4202 18.4969 43.5031 18.4558 43.5861C18.4558 43.669 18.4558 43.7519 18.4558 43.8349C18.4558 43.9178 18.4558 44.0008 18.4969 44.0837V44.1667L18.5791 44.1252L18.6203 44.0837L18.6614 44.0422C18.6614 44.0837 18.6614 44.1252 18.7025 44.1667C18.7436 44.2496 18.7436 44.3325 18.7847 44.4155C18.8258 44.5814 18.908 44.7472 18.9491 44.8717L18.9902 44.9546L19.0724 44.9131C19.1135 44.9131 19.1135 44.8717 19.1546 44.8717C19.1957 44.9131 19.1957 44.9546 19.2368 44.9961C19.2779 45.079 19.319 45.1205 19.3601 45.2034C19.4423 45.3278 19.5657 45.4523 19.6479 45.5767L19.689 45.6181L19.7712 45.5352L19.8123 45.4937L19.8534 45.4523C19.8945 45.4937 19.8945 45.4937 19.9356 45.5352C19.9767 45.5767 20.0178 45.6181 20.0589 45.7011C20.1 45.7426 20.1411 45.784 20.1822 45.8255C20.2233 45.867 20.3055 45.9914 20.3055 45.9914C20.3055 45.9914 20.4289 45.867 20.4289 45.8255C20.47 45.784 20.5111 45.7426 20.5522 45.7011C20.5933 45.6596 20.6344 45.6181 20.6755 45.5352C20.7166 45.4937 20.7166 45.4937 20.7577 45.4523L20.7988 45.4937L20.8399 45.5352L20.9221 45.6181L20.9632 45.5767C21.0865 45.4523 21.1687 45.3278 21.251 45.2034C21.2921 45.1205 21.3332 45.079 21.3743 44.9961C21.4154 44.9546 21.4154 44.9131 21.4565 44.8717C21.4976 44.8717 21.4976 44.9131 21.5387 44.9131L21.6209 44.9546L21.662 44.8717C21.7031 44.7058 21.7853 44.5814 21.8264 44.4155C21.8675 44.3325 21.8675 44.2496 21.9086 44.1667C21.9086 44.1252 21.9497 44.0837 21.9497 44.0422L21.9908 44.0837L22.0319 44.1252L22.1142 44.1667V44.0837C22.1142 44.0008 22.1553 43.9178 22.1553 43.8349C22.1553 43.7519 22.1553 43.669 22.1553 43.5861C22.1553 43.5031 22.1553 43.4202 22.1142 43.3372C22.1142 43.2958 22.1142 43.2543 22.073 43.2128H22.1964H22.4019Z" fill="#C08961"/>
<path fill-rule="evenodd" clip-rule="evenodd" d="M20.1821 45.162V45.079L20.2232 45.0375L20.3465 45.2864L20.511 45.0375L20.5521 45.079V45.162L20.3465 45.5767L20.1821 45.162Z" fill="#C08961"/>
<path fill-rule="evenodd" clip-rule="evenodd" d="M19.4424 44.7058V44.5399H19.5246L19.7712 44.9546L20.059 44.7058L20.1001 44.7887V44.9132L19.7712 45.2034L19.4424 44.7058Z" fill="#C08961"/>
<path fill-rule="evenodd" clip-rule="evenodd" d="M20.6348 44.9132V44.7887L20.6759 44.7058L20.9636 44.9546L21.2102 44.5399H21.2513V44.7058L20.9636 45.2034L20.6348 44.9132Z" fill="#C08961"/>
<path fill-rule="evenodd" clip-rule="evenodd" d="M19.8535 44.2911V44.2081L19.9768 44.1252L20.3468 44.5399L20.7578 44.1252L20.84 44.2081V44.2911L20.3468 44.7887L19.8535 44.2911Z" fill="#C08961"/>
<path fill-rule="evenodd" clip-rule="evenodd" d="M19.0312 44.0837V43.752L19.1135 43.7105V43.9178L19.2368 44.2496L19.4423 44.0837L19.5245 44.2496V44.2911L19.1957 44.5399L19.0312 44.0837Z" fill="#C08961"/>
<path fill-rule="evenodd" clip-rule="evenodd" d="M21.21 44.2911V44.2496L21.2922 44.0837L21.4977 44.2496L21.621 43.9178V43.7105L21.7032 43.752V44.0837L21.5388 44.5399L21.21 44.2911Z" fill="#C08961"/>
<path fill-rule="evenodd" clip-rule="evenodd" d="M19.2783 43.669V43.3787L19.3605 43.3372V43.4617L19.6483 43.9178L20.1004 43.5861L20.2237 43.6275V43.752L19.6483 44.1667L19.2783 43.669Z" fill="#C08961"/>
<path fill-rule="evenodd" clip-rule="evenodd" d="M20.5112 43.752V43.6275L20.6345 43.5861L21.0456 43.9178L21.3744 43.4617V43.3372L21.4566 43.3787V43.669L21.0867 44.1667L20.5112 43.752Z" fill="#C08961"/>
<path fill-rule="evenodd" clip-rule="evenodd" d="M26.677 38.4851C25.6083 38.3193 25.2384 38.3193 23.3887 38.3193H13.0303V37.9045L13.0714 37.7801L21.2101 24.7997H18.7027C16.7297 24.7997 15.4554 25.2559 14.7156 26.2097L14.5511 26.4171L14.099 26.2097V25.9609L14.8389 21.7723L15.1266 21.8138C16.072 21.9382 16.9763 21.9382 18.7849 21.9382H27.2525V22.3529L27.2114 22.4773L19.0727 35.4163H22.2788C24.3752 35.4163 26.1016 34.7113 27.047 33.4671L27.2114 33.2598L27.6635 33.4671V33.716L26.9648 38.5266L26.677 38.4851Z" fill="white"/>
<path fill-rule="evenodd" clip-rule="evenodd" d="M27.3756 33.6745L26.7179 38.1948C25.6492 38.0289 25.2381 38.0289 23.3884 38.0289H13.3589V37.9875L21.8265 24.4679H18.7436C16.8528 24.4679 15.373 24.8826 14.5098 26.0023L14.4687 25.9609L15.1264 22.0626C16.0718 22.187 16.935 22.187 18.8258 22.187H26.9645V22.2285L18.497 35.748H22.2786C24.5394 35.748 26.3069 34.9601 27.3345 33.6745H27.3756Z" fill="#004F40"/>
<path fill-rule="evenodd" clip-rule="evenodd" d="M20.3468 10.6995C14.5922 10.6995 9.24858 11.7778 4.80927 13.6025C4.72706 13.644 4.68596 13.7684 4.72706 13.8513C4.97369 14.349 5.26142 14.8881 5.50805 15.3858C5.54916 15.4272 5.59026 15.4687 5.67247 15.4687H35.1034C35.1856 15.4687 35.2267 15.4272 35.2678 15.3858C35.5145 14.8881 35.7611 14.3075 36.0488 13.8513C36.0899 13.7684 36.0488 13.644 35.9666 13.6025C31.4862 11.7363 26.1426 10.6995 20.3468 10.6995Z" fill="#C08961"/>
<path fill-rule="evenodd" clip-rule="evenodd" d="M39.2549 8.54304C38.5973 8.70892 37.2819 10.0775 36.0077 9.53834C35.1856 9.1651 34.8979 8.33568 35.0212 6.22066C35.0212 6.0133 34.939 5.93036 34.7745 6.09624C33.8291 7.09155 32.7604 8.25274 30.9518 7.71361C29.2254 7.21596 28.9377 5.47418 28.7733 3.89828C28.7321 3.64945 28.6088 3.60798 28.4444 3.81534C27.0469 5.93036 25.6904 6.63537 24.2517 6.46948C21.9088 6.22066 21.0045 4.10563 20.4701 2.73709C20.3879 2.52973 20.2235 2.52973 20.1413 2.73709C19.6069 4.10563 18.7026 6.22066 16.3596 6.46948C14.921 6.63537 13.5645 5.93036 12.167 3.81534C12.0025 3.60798 11.8792 3.60798 11.8381 3.89828C11.6737 5.47418 11.386 7.17449 9.65957 7.71361C7.85097 8.25274 6.78224 7.09155 5.83684 6.09624C5.67242 5.93036 5.5491 5.97183 5.59021 6.22066C5.75463 8.33568 5.46689 9.1651 4.6037 9.53834C3.32945 10.0775 2.0141 8.75039 1.35642 8.54304C1.23311 8.50156 1.19201 8.58451 1.27422 8.66745C2.17852 9.78717 3.00061 10.9484 3.7405 12.1925C3.7816 12.2754 3.86381 12.2754 3.94602 12.2754C8.63195 10.2848 14.2222 9.12363 20.2646 9.12363C26.307 9.12363 31.9383 10.2848 36.5831 12.2754C36.6654 12.3169 36.7476 12.2754 36.7887 12.1925C37.5286 10.9484 38.3506 9.78717 39.2549 8.66745C39.4194 8.58451 39.3783 8.50156 39.2549 8.54304Z" fill="#C08961"/>
<path fill-rule="evenodd" clip-rule="evenodd" d="M36.5011 12.7316C31.7329 10.741 26.1427 9.66275 20.3881 9.66275C14.5923 9.66275 9.04316 10.741 4.23391 12.7316C4.19281 12.7316 4.1517 12.8146 4.19281 12.856C4.23391 12.9804 4.31612 13.0634 4.35723 13.1878C4.39833 13.2293 4.43944 13.2293 4.48054 13.2293C9.16647 11.2387 14.6745 10.2019 20.3881 10.2019C26.1016 10.2019 31.5685 11.2387 36.2545 13.2293C36.2956 13.2293 36.3367 13.2293 36.3778 13.1878C36.4189 13.0634 36.5011 12.9804 36.5422 12.856C36.5422 12.8146 36.5422 12.7316 36.5011 12.7316Z" fill="#83182D"/>
<path fill-rule="evenodd" clip-rule="evenodd" d="M20.3471 0C19.8949 0 19.4839 0.373239 19.4839 0.870892C19.4839 1.32707 19.8538 1.74178 20.3471 1.74178C20.7992 1.74178 21.2103 1.36854 21.2103 0.870892C21.2103 0.373239 20.8403 0 20.3471 0Z" fill="#004F40"/>
<path fill-rule="evenodd" clip-rule="evenodd" d="M4.97368 3.98123C4.60374 3.98123 4.2749 4.27153 4.2749 4.68624C4.2749 5.10095 4.56264 5.39125 4.97368 5.39125C5.34362 5.39125 5.67246 5.10095 5.67246 4.68624C5.67246 4.27153 5.38473 3.98123 4.97368 3.98123Z" fill="#004F40"/>
<path fill-rule="evenodd" clip-rule="evenodd" d="M0.493256 7.05008C0.246628 7.05008 0 7.29891 0 7.5892C0 7.8795 0.246628 8.08686 0.493256 8.08686C0.780989 8.08686 0.986513 7.83803 0.986513 7.5892C1.02762 7.29891 0.780989 7.05008 0.493256 7.05008Z" fill="#004F40"/>
<path fill-rule="evenodd" clip-rule="evenodd" d="M11.7146 1.24414C11.3035 1.24414 10.9336 1.57591 10.9336 2.03209C10.9336 2.4468 11.2624 2.82004 11.7146 2.82004C12.1256 2.82004 12.4956 2.48827 12.4956 2.03209C12.4956 1.57591 12.1256 1.24414 11.7146 1.24414Z" fill="#004F40"/>
<path fill-rule="evenodd" clip-rule="evenodd" d="M35.7198 3.98123C35.3498 3.98123 35.021 4.27153 35.021 4.68624C35.021 5.10095 35.3087 5.39125 35.7198 5.39125C36.0897 5.39125 36.4186 5.10095 36.4186 4.68624C36.4186 4.27153 36.0897 3.98123 35.7198 3.98123Z" fill="#004F40"/>
<path fill-rule="evenodd" clip-rule="evenodd" d="M40.2003 7.05008C39.9126 7.05008 39.707 7.29891 39.707 7.54773C39.707 7.83803 39.9537 8.04538 40.2003 8.04538C40.488 8.04538 40.6935 7.79656 40.6935 7.54773C40.7347 7.29891 40.488 7.05008 40.2003 7.05008Z" fill="#004F40"/>
<path fill-rule="evenodd" clip-rule="evenodd" d="M29.0198 1.24414C28.6087 1.24414 28.2388 1.57591 28.2388 2.03209C28.2388 2.4468 28.5676 2.82004 29.0198 2.82004C29.4308 2.82004 29.8007 2.48827 29.8007 2.03209C29.7596 1.57591 29.4308 1.24414 29.0198 1.24414Z" fill="#004F40"/>
<path fill-rule="evenodd" clip-rule="evenodd" d="M59.3554 30.7715L58.821 34.9186C57.9167 34.7527 57.5879 34.7527 56.067 34.7527H47.6816V34.7113L54.7105 22.3114H52.1209C50.5179 22.3114 49.3258 22.6847 48.5859 23.7214L48.5448 23.68L49.1203 20.1134C49.9013 20.2379 50.6412 20.2379 52.2032 20.2379H58.9854V20.3208L51.9565 32.7206H55.1216C57.0124 32.7206 58.4922 31.9742 59.3143 30.813L59.3554 30.7715ZM73.9475 27.5782C73.9475 24.0532 72.2622 22.0211 69.426 22.0211C66.7131 22.0211 65.0278 24.1776 65.0278 27.4538C65.0278 30.8544 66.5487 33.0109 69.5082 33.0109C72.0978 33.0109 73.9475 30.8959 73.9475 27.5782ZM61.9861 27.6612C61.9861 22.975 64.8634 19.8646 69.6315 19.8646C74.0709 19.8646 76.9893 22.892 76.9893 27.3709C76.9893 32.0156 73.9064 35.1674 69.3027 35.1674C64.699 35.1674 61.9861 31.9327 61.9861 27.6612ZM80.3188 34.7113C80.9764 33.9648 81.4697 33.1354 81.5519 31.6839L82.0863 23.597C82.1685 22.4358 81.9218 20.8599 80.9764 20.3208V20.2793H85.7035C85.4569 20.6111 85.498 21.2332 86.0323 22.187L88.0876 25.712C88.7452 26.8318 89.1974 27.9515 89.3618 29.1541H89.444C89.7728 27.8685 90.3072 26.9147 90.9649 25.712L92.979 22.1041C93.5134 21.1917 93.5545 20.5696 93.3078 20.2793H98.076V20.3208C97.1306 20.8599 96.8017 22.4773 96.884 23.597L97.5416 31.6839C97.6238 32.6792 98.0349 33.9648 98.7748 34.7113L98.7337 34.7527H94.0066V34.7113C94.4177 34.338 94.7876 33.4257 94.7054 32.1401L94.3766 27.8271C94.2944 26.8318 94.2944 25.7535 94.4999 24.2606H94.4177C93.9655 25.6706 93.5134 26.6244 92.8146 27.7856L90.5127 31.6839C89.7728 32.928 89.5673 33.7574 89.5262 34.2136H89.3618C89.2796 33.7574 89.0741 32.928 88.3342 31.7253L85.8679 27.7441C85.2102 26.6659 84.7581 25.6706 84.3881 24.2191H84.3059C84.4703 25.795 84.4703 26.9147 84.4292 27.7856L84.1826 32.0986C84.1004 33.4257 84.4703 34.338 84.8814 34.6698V34.7113H80.3188ZM102.68 34.7113C103.214 34.338 103.79 33.3427 103.79 31.6424V23.3897C103.79 21.6479 103.214 20.6526 102.68 20.3208V20.2793H107.777V20.3208C107.242 20.694 106.667 21.6894 106.667 23.3897V31.6424C106.667 33.3842 107.242 34.3795 107.777 34.7113V34.7527H102.68V34.7113ZM111.517 34.7113C112.052 34.338 112.627 33.3427 112.627 31.6424V23.3067C112.627 22.187 112.257 20.8599 111.517 20.3208V20.2793H116.203C116.244 20.694 116.368 21.1502 117.066 22.2699L120.026 27.3294C120.642 28.3662 121.3 29.8591 121.917 31.4765H121.999C121.711 29.8177 121.67 28.3662 121.67 27.1635V23.4311C121.67 21.6893 121.136 20.694 120.601 20.3623V20.3208H125.37C124.835 20.694 124.26 21.6894 124.26 23.3897V31.6424C124.26 33.3427 124.835 34.3795 125.37 34.7113V34.7527H121.012C120.766 34.1721 120.396 33.4257 119.985 32.7621L117.066 27.9929C116.08 26.3756 115.545 25.1729 114.929 23.2238H114.847C115.176 25.2144 115.217 26.5415 115.217 28.0759V31.6009C115.217 33.3427 115.751 34.338 116.285 34.6698V34.7113H111.517Z" fill="#004F40"/>
</svg>
