<svg width="256" height="53" viewBox="0 0 256 53" fill="none" xmlns="http://www.w3.org/2000/svg">
<g clip-path="url(#clip0)">
<path fill-rule="evenodd" clip-rule="evenodd" d="M146.004 30.0667C146.004 28.6981 145.264 27.7857 143.743 27.7857H141.934V32.3476H143.743C145.264 32.389 146.004 31.4352 146.004 30.0667ZM141.934 22.1042V25.8366H143.414C144.606 25.8366 145.305 25.1731 145.305 23.846C145.305 22.6848 144.606 22.1042 143.414 22.1042H141.934ZM148.922 30.1911C148.922 32.8867 146.908 34.4211 144.154 34.4211H137.947V34.3796C138.441 34.0064 139.139 33.0526 139.139 31.1864V23.2654C139.139 21.5651 138.605 20.5698 137.947 20.1136V20.0721H143.579C146.661 20.0721 148.182 21.2333 148.182 23.6801C148.182 25.256 147.031 26.5416 145.839 26.7075V26.749C147.525 26.9978 148.922 28.5322 148.922 30.1911ZM166.967 34.3796L162.199 34.4211V34.3796C162.322 33.9235 162.199 33.3429 161.747 32.5549L158.582 27.0807H159.568C161.336 27.0807 162.322 26.3757 162.322 24.5095C162.322 23.0166 161.336 22.0627 159.568 22.0627L158.13 22.1042V31.3937C158.13 33.0111 158.705 34.0064 159.157 34.3796V34.4211H154.225V34.3796C154.759 34.0479 155.335 33.0111 155.335 31.3108V23.0995C155.335 21.4821 154.759 20.4868 154.225 20.1136V20.0721H160.02C163.309 20.0721 165.2 21.731 165.2 24.4266C165.2 26.6246 164.131 27.9516 162.405 28.5322L164.378 31.6426C165.2 32.8867 166.022 33.882 166.967 34.3796ZM182.094 30.4814L181.518 34.587C180.778 34.4626 180.244 34.4211 179.011 34.4211H171.776V34.3796C172.27 34.0479 172.886 33.0111 172.886 31.3108V23.1825C172.886 21.4822 172.311 20.4868 171.776 20.1136V20.0721H179.134C179.956 20.0721 180.861 20.0307 181.313 19.9062L181.642 23.5972H181.6C181.107 22.6019 179.997 22.0627 178.394 22.0627H175.681V25.7122H177.243C178.929 25.7122 179.504 25.6707 180.45 25.5463L179.874 29.0299H179.833C179.504 28.1175 178.764 27.7443 177.613 27.7443H175.722V32.389H177.942C179.751 32.389 181.189 31.7255 182.053 30.4399L182.094 30.4814ZM189.41 34.3796C190.068 33.6332 190.232 32.5134 189.904 31.1864L187.52 22.4775C187.314 21.648 186.862 20.5283 186.122 20.1136V20.0721H191.055V20.1136C190.52 20.5698 190.274 21.5651 190.52 22.6848L191.671 27.2881C191.959 28.4078 192.082 29.4031 192.164 31.0205H192.247C192.658 29.3202 193.233 27.9931 193.685 27.0807L195.864 22.5604C196.398 21.3992 196.686 20.6113 196.85 19.9477H196.974C197.179 20.5698 197.385 21.3577 197.96 22.5189L199.933 26.4587C200.92 28.4493 201.249 29.6105 201.536 31.0205H201.618C201.701 29.4446 201.947 28.0346 202.235 26.8319L203.222 22.7263C203.509 21.6066 203.222 20.6527 202.728 20.1551L202.769 20.1136H207.291V20.1551C206.551 20.5698 206.099 21.6895 205.893 22.5604L203.838 31.2693C203.509 32.6793 203.715 33.6332 204.29 34.4626V34.4211H199.522V34.3796C199.851 33.7991 199.892 32.8452 199.399 31.8084L197.919 28.5737C197.467 27.6199 197.097 26.2928 196.974 25.4219H196.891C196.645 26.5001 196.316 27.371 195.987 28.1175L194.261 31.8084C193.809 32.8452 193.767 33.7991 194.178 34.3796V34.4211L189.41 34.3796ZM222.253 30.4814L221.678 34.587C220.938 34.4626 220.403 34.4211 219.17 34.4211H211.936V34.3796C212.429 34.0479 213.046 33.0111 213.046 31.3108V23.1825C213.046 21.4822 212.47 20.4868 211.936 20.1136V20.0721H219.293C220.116 20.0721 221.02 20.0307 221.472 19.9062L221.801 23.5972H221.76C221.266 22.6019 220.157 22.0627 218.554 22.0627H215.841V25.7122H217.403C219.088 25.7122 219.663 25.6707 220.609 25.5463L220.033 29.0299H219.992C219.663 28.1175 218.924 27.7443 217.773 27.7443H215.882V32.389H218.101C219.91 32.389 221.308 31.7255 222.253 30.4814ZM240.092 34.3796L235.324 34.4211V34.3796C235.407 33.9235 235.324 33.3429 234.872 32.5549L231.707 27.0807H232.694C234.461 27.0807 235.448 26.3757 235.448 24.5095C235.448 23.0166 234.461 22.0627 232.694 22.0627L231.255 22.1042V31.3937C231.255 33.0111 231.83 34.0064 232.283 34.3796V34.4211H227.35V34.3796C227.884 34.0479 228.46 33.0111 228.46 31.3108V23.0995C228.46 21.4821 227.884 20.4868 227.35 20.1136V20.0721H233.146C236.434 20.0721 238.325 21.731 238.325 24.4266C238.325 26.6246 237.256 27.9516 235.53 28.5322L237.503 31.6426C238.325 32.8867 239.147 33.882 240.092 34.3796ZM256 20.0721V20.1136C255.507 20.4868 254.89 21.3577 254.356 22.2286L250.492 28.6566V31.1449C250.492 32.9282 251.067 34.0064 251.725 34.3796V34.4211H246.423V34.3796C246.998 34.0479 247.656 32.9282 247.656 31.1449V28.7396L243.71 22.1872C243.175 21.3577 242.559 20.4868 242.065 20.0721V20.0307H246.423V20.0721C246.258 20.6113 246.505 21.4821 246.875 22.1872L248.437 24.9242C248.642 25.2975 248.848 25.6707 249.053 26.2513H249.135C249.341 25.6707 249.588 25.2975 249.793 24.9242L251.355 22.1872C251.725 21.5236 252.013 20.6527 251.807 20.0721V20.0307H256V20.0721Z" fill="white"/>
<path fill-rule="evenodd" clip-rule="evenodd" d="M3.82262 16.5469C3.74041 16.5469 3.6582 16.6298 3.6582 16.7128V36.6189C3.6582 44.4154 18.8258 52.2534 20.2645 52.9999C20.3467 53.0414 20.4289 53.0414 20.47 52.9999C21.9087 52.2534 37.0763 44.4154 37.0763 36.6189V16.7128C37.0763 16.6298 36.9941 16.5469 36.9119 16.5469H3.82262Z" fill="#C08961"/>
<path fill-rule="evenodd" clip-rule="evenodd" d="M20.4292 52.3778C20.3881 52.4193 20.3059 52.4193 20.2648 52.3778C17.9629 51.1751 4.19287 43.7518 4.19287 36.6188V17.2104C4.19287 17.1689 4.23398 17.0859 4.31619 17.0859H36.4189C36.4601 17.0859 36.5423 17.1274 36.5423 17.2104V36.6188C36.5423 43.7518 22.7311 51.2166 20.4292 52.3778Z" fill="#004F40"/>
<path fill-rule="evenodd" clip-rule="evenodd" d="M20.3881 50.3457C20.347 50.3457 20.347 50.3457 20.3059 50.3457C14.3868 47.1939 6.00146 41.1806 6.00146 36.6188V18.9521C6.00146 18.9106 6.04257 18.9106 6.04257 18.9106H34.6514C34.6925 18.9106 34.6925 18.9521 34.6925 18.9521V36.5773C34.7336 41.1806 26.3483 47.1939 20.3881 50.3457Z" fill="#C08961"/>
<path fill-rule="evenodd" clip-rule="evenodd" d="M20.388 50.0556H20.3469C14.1401 46.7379 6.28906 40.8076 6.28906 36.619V19.2012H34.4047V36.619C34.4458 40.8491 26.5948 46.7379 20.388 50.0556Z" fill="#83182D"/>
<path fill-rule="evenodd" clip-rule="evenodd" d="M34.4458 28.3248V19.2012H6.28906V28.3248H34.4458Z" fill="white"/>
<path fill-rule="evenodd" clip-rule="evenodd" d="M20.1414 46.4061C19.8537 46.2817 19.6892 46.1987 19.607 46.1987H19.5659C19.5659 46.2402 19.6481 46.4061 19.8125 46.489C19.977 46.6134 20.1414 46.6134 20.2236 46.6134C20.2647 46.6134 20.2647 46.6134 20.2647 46.6134C20.3469 46.572 20.3058 46.489 20.1414 46.4061Z" fill="#C08961"/>
<path fill-rule="evenodd" clip-rule="evenodd" d="M19.5246 46.4888C19.5657 46.4888 19.5657 46.4888 19.5657 46.4888C19.5657 46.4474 19.5657 46.4059 19.4424 46.2815C19.1958 46.0741 19.0724 45.9912 19.0313 45.9497H18.9902C18.9902 45.9912 18.9902 46.1571 19.1547 46.2815C19.278 46.4474 19.4424 46.4474 19.5246 46.4888Z" fill="#C08961"/>
<path fill-rule="evenodd" clip-rule="evenodd" d="M18.8669 46.1986C18.9081 46.1986 18.9081 46.1986 18.9081 46.1986C18.9492 46.1571 18.9492 46.1156 18.8669 45.9497C18.7025 45.7009 18.5792 45.5765 18.5792 45.535C18.5792 45.535 18.5381 45.4936 18.5381 45.535C18.5381 45.5765 18.497 45.7424 18.5792 45.9083C18.6614 46.0742 18.7847 46.1571 18.8669 46.1986Z" fill="#C08961"/>
<path fill-rule="evenodd" clip-rule="evenodd" d="M18.3325 45.7425L18.3736 45.784C18.4147 45.784 18.4147 45.7011 18.3736 45.5352C18.3325 45.3693 18.2092 45.1619 18.1681 45.079C18.1681 45.079 18.127 45.0375 18.127 45.079C18.0859 45.1204 18.0448 45.2449 18.0859 45.4522C18.1681 45.5352 18.2503 45.6596 18.3325 45.7425Z" fill="#C08961"/>
<path fill-rule="evenodd" clip-rule="evenodd" d="M17.9217 45.162C17.9217 45.2035 17.9628 45.2035 17.9217 45.162C18.0039 45.2035 18.045 45.1206 18.0039 44.9962C17.9628 44.8303 17.9628 44.5814 17.9217 44.4985C17.9217 44.4985 17.9217 44.457 17.8806 44.457C17.8394 44.4985 17.7983 44.6229 17.7983 44.7888C17.7983 44.9547 17.8805 45.1206 17.9217 45.162Z" fill="#C08961"/>
<path fill-rule="evenodd" clip-rule="evenodd" d="M17.7161 44.5814C17.7572 44.5814 17.7983 44.54 17.7983 44.3741C17.7983 44.2082 17.7983 44.0008 17.8394 43.8764V43.835C17.7983 43.8764 17.7161 43.9594 17.6749 44.1253C17.6338 44.3326 17.6338 44.4985 17.7161 44.5814C17.6749 44.5814 17.6749 44.5814 17.7161 44.5814Z" fill="#C08961"/>
<path fill-rule="evenodd" clip-rule="evenodd" d="M17.7984 43.3788C17.7984 43.3788 17.7984 43.3373 17.7984 43.3788C17.7573 43.3788 17.634 43.4617 17.5929 43.5861C17.5518 43.7106 17.5518 43.8764 17.5518 43.9179C17.5518 43.9594 17.5518 43.9594 17.5929 43.9594C17.634 43.9594 17.6751 43.9594 17.7162 43.7935C17.7573 43.6691 17.7984 43.4617 17.7984 43.3788Z" fill="#C08961"/>
<path fill-rule="evenodd" clip-rule="evenodd" d="M17.7162 43.2545C17.7984 43.1301 17.8395 42.9228 17.8806 42.8398V42.7983C17.8395 42.7983 17.7162 42.8813 17.634 43.0057C17.5518 43.1301 17.5518 43.2545 17.5518 43.3375C17.5518 43.3789 17.5518 43.3789 17.5518 43.3789C17.5929 43.3789 17.634 43.3789 17.7162 43.2545Z" fill="#C08961"/>
<path fill-rule="evenodd" clip-rule="evenodd" d="M19.8124 46.6966C19.6069 46.7381 19.4425 46.821 19.4014 46.8625C19.4014 46.8625 19.4014 46.8625 19.4425 46.904C19.5658 46.9455 19.8946 46.9869 20.1001 46.904C20.3057 46.8625 20.3057 46.7796 20.3057 46.7381L20.2646 46.6966C20.1824 46.6552 20.0179 46.6552 19.8124 46.6966Z" fill="#C08961"/>
<path fill-rule="evenodd" clip-rule="evenodd" d="M19.5658 46.5718C19.5658 46.5718 19.5658 46.5303 19.5247 46.5303C19.4425 46.4888 19.2781 46.4474 19.1137 46.4474C18.9082 46.4059 18.7437 46.4474 18.7026 46.4888C18.7026 46.4888 18.7026 46.4888 18.7437 46.5303C18.8671 46.5718 19.1548 46.6962 19.3603 46.6962C19.5247 46.6547 19.5247 46.6132 19.5658 46.5718Z" fill="#C08961"/>
<path fill-rule="evenodd" clip-rule="evenodd" d="M18.867 46.2815C18.867 46.2815 18.867 46.24 18.8259 46.24C18.7848 46.1985 18.6204 46.1156 18.456 46.0326C18.2504 45.9497 18.1271 45.9497 18.0449 45.9497V45.9912C18.1271 46.0741 18.3738 46.2815 18.5793 46.3229C18.7848 46.3229 18.867 46.2815 18.867 46.2815Z" fill="#C08961"/>
<path fill-rule="evenodd" clip-rule="evenodd" d="M18.2914 45.7843V45.7428C18.2503 45.6599 18.127 45.5769 18.0036 45.4525C17.8392 45.3281 17.7159 45.2866 17.6748 45.2866C17.6748 45.2866 17.6748 45.2866 17.6748 45.3281C17.757 45.411 17.9214 45.6599 18.0859 45.7428C18.2503 45.8672 18.2914 45.8257 18.2914 45.7843Z" fill="#C08961"/>
<path fill-rule="evenodd" clip-rule="evenodd" d="M17.8805 45.2451V45.2037C17.8394 45.1207 17.7571 44.9963 17.6749 44.8719C17.5516 44.7475 17.4283 44.6646 17.3872 44.6646C17.3872 44.6646 17.3872 44.6646 17.3872 44.706C17.4283 44.789 17.5516 45.0793 17.6749 45.2037C17.7983 45.2866 17.8805 45.2451 17.8805 45.2451Z" fill="#C08961"/>
<path fill-rule="evenodd" clip-rule="evenodd" d="M17.634 44.623V44.5816C17.634 44.4986 17.5929 44.3742 17.5107 44.2498C17.4285 44.0839 17.3463 44.001 17.3052 44.001C17.3052 44.001 17.3052 44.001 17.3052 44.0424C17.3052 44.1669 17.3874 44.4157 17.5107 44.5401C17.5518 44.623 17.634 44.623 17.634 44.623Z" fill="#C08961"/>
<path fill-rule="evenodd" clip-rule="evenodd" d="M17.5108 44.0009V43.9594C17.5108 43.8765 17.4697 43.7521 17.4286 43.5862C17.3875 43.4203 17.2642 43.3374 17.2642 43.2959C17.2642 43.2959 17.2642 43.2959 17.2642 43.3374C17.2642 43.4203 17.3053 43.7106 17.3464 43.835C17.4286 44.0009 17.4697 44.0009 17.5108 44.0009Z" fill="#C08961"/>
<path fill-rule="evenodd" clip-rule="evenodd" d="M17.5106 43.3789C17.5517 43.2959 17.5517 43.13 17.5106 43.0056C17.4695 42.8397 17.4284 42.7568 17.3873 42.7153C17.3873 42.7153 17.3873 42.7153 17.3873 42.7568C17.3462 42.8397 17.3462 43.0886 17.3873 43.2545C17.4284 43.3789 17.4695 43.3789 17.5106 43.3789Z" fill="#C08961"/>
<path fill-rule="evenodd" clip-rule="evenodd" d="M17.5928 42.9642C17.6339 42.9227 17.675 42.8398 17.7162 42.6324C17.7573 42.4251 17.7984 42.2177 17.7984 42.1348C17.7573 42.2177 17.6339 42.3836 17.5928 42.5909C17.5517 42.7983 17.5517 42.9227 17.5928 42.9642Z" fill="#C08961"/>
<path fill-rule="evenodd" clip-rule="evenodd" d="M20.8811 46.489C21.0455 46.3646 21.1278 46.2402 21.1278 46.1987C21.1278 46.1987 21.1278 46.1987 21.0867 46.1987C21.0455 46.1987 20.8811 46.2817 20.5523 46.4061C20.3879 46.489 20.3468 46.572 20.3879 46.6134H20.429C20.5112 46.6134 20.7167 46.6134 20.8811 46.489Z" fill="#C08961"/>
<path fill-rule="evenodd" clip-rule="evenodd" d="M21.21 46.4888C21.2923 46.4474 21.4567 46.4059 21.58 46.2815C21.7033 46.1156 21.7444 45.9912 21.7444 45.9497C21.7444 45.9497 21.7444 45.9497 21.7033 45.9497C21.6622 45.9912 21.5389 46.0741 21.2923 46.2815C21.1689 46.4059 21.1689 46.4888 21.1689 46.4888C21.1689 46.4888 21.1689 46.4888 21.21 46.4888Z" fill="#C08961"/>
<path fill-rule="evenodd" clip-rule="evenodd" d="M21.8674 46.1987C21.9085 46.1572 22.0729 46.0743 22.1552 45.9084C22.2374 45.7425 22.2374 45.6181 22.1963 45.5352C22.1963 45.5352 22.1963 45.5352 22.1552 45.5352C22.1141 45.5766 22.0318 45.701 21.8674 45.9499C21.7852 46.0743 21.7852 46.1572 21.8263 46.1987C21.8263 46.1987 21.8263 46.1987 21.8674 46.1987Z" fill="#C08961"/>
<path fill-rule="evenodd" clip-rule="evenodd" d="M22.4022 45.7426C22.4433 45.7011 22.5667 45.5767 22.6078 45.4108C22.6489 45.245 22.6078 45.1205 22.5667 45.0376C22.5667 45.0376 22.5667 45.0376 22.5256 45.0376C22.4844 45.1205 22.4022 45.3694 22.32 45.4938C22.2789 45.6597 22.32 45.7011 22.32 45.7426C22.3611 45.7426 22.4022 45.7426 22.4022 45.7426Z" fill="#C08961"/>
<path fill-rule="evenodd" clip-rule="evenodd" d="M22.7722 45.2035C22.8544 45.1206 22.9366 44.9547 22.8955 44.7888C22.8955 44.6229 22.8133 44.4985 22.8133 44.457C22.8133 44.457 22.8133 44.457 22.7722 44.4985C22.731 44.5814 22.731 44.8303 22.6899 44.9962C22.6899 45.162 22.731 45.2035 22.7722 45.2035Z" fill="#C08961"/>
<path fill-rule="evenodd" clip-rule="evenodd" d="M22.8955 43.918C22.8955 44.0009 22.8955 44.2497 22.9366 44.4156C22.9777 44.5815 23.0188 44.5815 23.0188 44.623C23.0188 44.623 23.0599 44.623 23.0599 44.5815C23.101 44.4986 23.101 44.3742 23.101 44.2083C23.0599 44.0424 22.9366 43.918 22.8955 43.918Z" fill="#C08961"/>
<path fill-rule="evenodd" clip-rule="evenodd" d="M23.142 44.001C23.142 44.001 23.142 43.9595 23.142 44.001C23.1832 43.8766 23.1832 43.7521 23.142 43.6277C23.1009 43.4618 22.9776 43.4204 22.9365 43.3789C22.9365 43.3789 22.9365 43.3789 22.9365 43.4204C22.9365 43.5033 22.9776 43.7107 23.0187 43.8766C23.0598 43.9595 23.1009 44.001 23.142 44.001Z" fill="#C08961"/>
<path fill-rule="evenodd" clip-rule="evenodd" d="M23.1418 43.3789C23.1829 43.3789 23.1829 43.3789 23.1418 43.3789C23.1418 43.296 23.1418 43.1301 23.0596 43.0057C22.9774 42.8813 22.8541 42.8398 22.813 42.7983C22.813 42.7983 22.813 42.7983 22.813 42.8398C22.8541 42.9228 22.8952 43.1301 22.9774 43.2545C23.1007 43.3789 23.1418 43.3789 23.1418 43.3789Z" fill="#C08961"/>
<path fill-rule="evenodd" clip-rule="evenodd" d="M20.4288 46.6548C20.3877 46.6548 20.3877 46.6548 20.3877 46.6963C20.3877 46.7377 20.3877 46.8207 20.5932 46.8621C20.7987 46.9451 21.1276 46.9036 21.2509 46.8621C21.292 46.8621 21.292 46.8207 21.292 46.8207C21.2509 46.7792 21.0865 46.6963 20.881 46.6548C20.7165 46.6548 20.511 46.6548 20.4288 46.6548Z" fill="#C08961"/>
<path fill-rule="evenodd" clip-rule="evenodd" d="M21.21 46.5307C21.1689 46.5307 21.1689 46.5721 21.1689 46.5721C21.1689 46.6136 21.21 46.6551 21.4156 46.6551C21.6211 46.6551 21.9499 46.5307 22.0321 46.4892C22.0732 46.4892 22.0732 46.4477 22.0732 46.4477C22.0321 46.4477 21.8677 46.4062 21.6622 46.4062C21.4567 46.4477 21.2923 46.4892 21.21 46.5307Z" fill="#C08961"/>
<path fill-rule="evenodd" clip-rule="evenodd" d="M21.9088 46.1985C21.8677 46.1985 21.8677 46.24 21.8677 46.24C21.8677 46.2814 21.9088 46.3229 22.1143 46.2814C22.3198 46.24 22.5665 46.0326 22.6487 45.9497C22.6487 45.9497 22.6898 45.9082 22.6487 45.9082C22.6076 45.9082 22.4431 45.9082 22.2376 45.9911C22.1143 46.0741 21.9499 46.157 21.9088 46.1985Z" fill="#C08961"/>
<path fill-rule="evenodd" clip-rule="evenodd" d="M22.4431 45.7428C22.4431 45.7843 22.402 45.7843 22.4431 45.7843C22.4431 45.8257 22.5253 45.8257 22.6897 45.7428C22.8541 45.6599 23.0596 45.411 23.1007 45.3281V45.2866C23.0596 45.2866 22.8952 45.3281 22.7719 45.4525C22.6075 45.5769 22.4842 45.7013 22.4431 45.7428Z" fill="#C08961"/>
<path fill-rule="evenodd" clip-rule="evenodd" d="M23.0595 44.8719C22.9362 44.9963 22.854 45.1207 22.854 45.2036C22.854 45.2451 22.854 45.2451 22.854 45.2451C22.8951 45.2451 22.9362 45.2866 23.0595 45.1622C23.2239 45.0378 23.3062 44.7889 23.3473 44.6645V44.623C23.3062 44.6645 23.1828 44.706 23.0595 44.8719Z" fill="#C08961"/>
<path fill-rule="evenodd" clip-rule="evenodd" d="M23.2651 44.4986C23.3884 44.3327 23.4295 44.0839 23.4706 44.0009V43.9595C23.4295 44.0009 23.3473 44.0839 23.2651 44.2083C23.1829 44.3327 23.1418 44.4986 23.1418 44.5401C23.1418 44.5815 23.1418 44.5815 23.1418 44.5815C23.1007 44.623 23.1829 44.623 23.2651 44.4986Z" fill="#C08961"/>
<path fill-rule="evenodd" clip-rule="evenodd" d="M23.1831 43.9594C23.1831 44.0009 23.1831 44.0009 23.1831 44.0009C23.2242 44.0009 23.2653 44.0009 23.3475 43.835C23.4297 43.6691 23.4297 43.4203 23.4297 43.3374V43.2959C23.3886 43.3374 23.3064 43.4203 23.2653 43.5862C23.2242 43.7521 23.1831 43.8765 23.1831 43.9594Z" fill="#C08961"/>
<path fill-rule="evenodd" clip-rule="evenodd" d="M23.2242 43.3788C23.2653 43.3788 23.3064 43.3788 23.3475 43.2129C23.3886 43.0471 23.3886 42.7982 23.3475 42.7153V42.6738C23.3064 42.7153 23.2653 42.7982 23.2242 42.9641C23.1831 43.1715 23.1831 43.2959 23.2242 43.3788Z" fill="#C08961"/>
<path fill-rule="evenodd" clip-rule="evenodd" d="M23.142 42.9642C23.1832 42.9228 23.1832 42.7983 23.142 42.6325C23.1009 42.4251 22.9776 42.2592 22.9365 42.1763C22.9365 42.2592 22.9776 42.4666 23.0187 42.6739C23.0187 42.8398 23.1009 42.9228 23.142 42.9642Z" fill="#C08961"/>
<path fill-rule="evenodd" clip-rule="evenodd" d="M19.7303 41.9272L19.5658 41.8442L19.3192 41.9272L19.1548 42.1345L19.648 42.0101L19.7303 41.9272Z" fill="#C08961"/>
<path fill-rule="evenodd" clip-rule="evenodd" d="M19.319 42.3836L19.2368 42.5495L19.5245 42.8398L20.2233 42.6325L20.3055 42.3836L20.2644 42.2592H20.1822V42.4251L19.5245 42.591L19.3601 42.3836L19.4423 42.1763H19.4012L19.319 42.3422V42.3836Z" fill="#C08961"/>
<path fill-rule="evenodd" clip-rule="evenodd" d="M19.8948 42.9638V42.8809H19.8126L19.7715 43.1712L20.347 43.5859L20.9635 43.1712L20.9224 42.8809H20.8402V42.9638L20.347 43.2956L19.8948 42.9638Z" fill="#C08961"/>
<path fill-rule="evenodd" clip-rule="evenodd" d="M20.0178 41.8442L19.9355 42.0101L20.3466 42.1345L20.7576 42.0101L20.7165 41.8442L20.6754 41.8027L20.3466 41.9271L20.0589 41.8027L20.0178 41.8442Z" fill="#C08961"/>
<path fill-rule="evenodd" clip-rule="evenodd" d="M19.7303 41.7614L20.2647 41.5955V41.3466L20.1824 41.3052V41.3466L19.7303 41.4711L19.6481 41.3881L19.3604 41.5955H19.4837L19.7303 41.7614Z" fill="#C08961"/>
<path fill-rule="evenodd" clip-rule="evenodd" d="M18.8259 43.0056L18.867 43.3788L18.9492 43.3374L19.4424 43.13L19.5246 43.0056L19.3602 42.8812L18.9492 43.0885L18.9081 42.6738L18.7848 42.8812L18.7437 42.9641L18.8259 42.9227V43.0056Z" fill="#C08961"/>
<path fill-rule="evenodd" clip-rule="evenodd" d="M21.7031 43.4614L21.7442 43.6273L21.9909 43.7517V43.6273L21.7031 43.4614Z" fill="#C08961"/>
<path fill-rule="evenodd" clip-rule="evenodd" d="M20.5525 42.4251L20.5114 42.2592H20.4703L20.4292 42.3836L20.4703 42.6325L21.2102 42.8398L21.4979 42.5495L21.4157 42.3836L21.3746 42.3422L21.3335 42.1763H21.2924L21.3746 42.3836L21.1691 42.591L20.5525 42.4251Z" fill="#C08961"/>
<path fill-rule="evenodd" clip-rule="evenodd" d="M21.8676 43.3788L21.9087 43.0056V42.9227L21.9909 42.9641L21.9498 42.8812L21.8265 42.6738L21.7854 43.0885L21.3744 42.8812L21.21 43.0056L21.2922 43.13L21.7854 43.3374L21.8676 43.3788Z" fill="#C08961"/>
<path fill-rule="evenodd" clip-rule="evenodd" d="M18.7437 43.6273V43.7517L18.9903 43.6273L19.0314 43.4614L18.7437 43.6273Z" fill="#C08961"/>
<path fill-rule="evenodd" clip-rule="evenodd" d="M19.2368 42.2592L19.2779 42.2178L19.1135 42.3007L19.0313 42.3837L18.908 42.4251L18.7847 42.591L19.0313 42.5495L19.2368 42.2592Z" fill="#C08961"/>
<path fill-rule="evenodd" clip-rule="evenodd" d="M21.0046 41.7614L21.2512 41.5955H21.3745L21.0868 41.3881L21.0046 41.4711L20.5524 41.3466V41.3052L20.4702 41.3466V41.5955L21.0046 41.7614Z" fill="#C08961"/>
<path fill-rule="evenodd" clip-rule="evenodd" d="M21.0044 41.9272L21.0455 42.0101L21.5799 42.1345L21.4154 41.9272L21.1277 41.8442L21.0044 41.9272Z" fill="#C08961"/>
<path fill-rule="evenodd" clip-rule="evenodd" d="M21.4976 42.2592L21.7032 42.5495L21.9498 42.591L21.8265 42.4251L21.7032 42.3837L21.621 42.3007L21.4565 42.2178L21.4976 42.2592Z" fill="#C08961"/>
<path fill-rule="evenodd" clip-rule="evenodd" d="M22.0319 43.9181L21.9908 43.8766L21.9086 43.8351V43.9595C21.9086 44.0425 21.8675 44.1254 21.8675 44.2084C21.8675 44.2913 21.8264 44.3743 21.8264 44.4572C21.7853 44.5816 21.7442 44.706 21.7031 44.8304L21.6209 44.7475L21.5387 44.706L21.4976 44.789C21.4565 44.8719 21.4154 44.9134 21.4154 44.9963C21.3743 45.0793 21.3332 45.1207 21.2921 45.2037C21.2098 45.3281 21.1276 45.411 21.0454 45.5354L21.0043 45.494L20.9632 45.4525L20.9221 45.411C20.9221 45.411 20.9221 45.411 20.881 45.3696L20.8399 45.3281L20.7988 45.411C20.7577 45.4525 20.7577 45.5354 20.7166 45.5769C20.6755 45.6184 20.6755 45.7013 20.6344 45.7428C20.5933 45.7843 20.5522 45.8257 20.5522 45.9087C20.5111 45.9502 20.5111 45.9916 20.47 46.0331C20.4289 45.9916 20.4289 45.9502 20.3878 45.9087L20.3055 45.7428C20.2644 45.7013 20.2233 45.6599 20.2233 45.5769C20.1822 45.5354 20.1822 45.4525 20.1411 45.411L20.1 45.3281L20.0589 45.3696C20.0589 45.3696 20.0589 45.3696 20.0178 45.411L19.9767 45.4525L19.9356 45.494L19.8945 45.5354C19.8123 45.4525 19.7301 45.3281 19.6479 45.2037C19.6068 45.1207 19.5657 45.0793 19.5246 44.9963C19.4835 44.9134 19.4423 44.8719 19.4423 44.789L19.4012 44.706L19.319 44.7475L19.2368 44.8304C19.1957 44.706 19.1546 44.5816 19.1135 44.4572C19.0724 44.3743 19.0724 44.2913 19.0724 44.2084C19.0724 44.1254 19.0313 44.0425 19.0313 43.9595V43.8351L18.9491 43.8766C18.908 43.8766 18.908 43.9181 18.908 43.9181L18.8669 43.9595H18.8258C18.8258 43.9181 18.8258 43.8766 18.8258 43.8351C18.8258 43.7522 18.8258 43.6692 18.8258 43.5863C18.8258 43.5034 18.8258 43.4204 18.8669 43.3375C18.8669 43.296 18.8669 43.2545 18.908 43.2131C18.908 43.1716 18.908 43.1301 18.9491 43.0887L18.9902 42.9642H18.8669H18.7436C18.7847 42.8813 18.7847 42.7984 18.8258 42.7154C18.8669 42.591 18.908 42.5081 18.9902 42.3836C19.0313 42.2592 19.1135 42.1763 19.1957 42.0933C19.2368 42.0519 19.2779 42.0104 19.319 41.9689C19.3601 41.9275 19.3601 41.9275 19.3601 41.9275C19.4012 41.9275 19.4012 41.886 19.4423 41.886L19.6068 41.7616L19.4012 41.7201L19.319 41.6786C19.3601 41.6372 19.4012 41.5957 19.4423 41.5957C19.5246 41.5128 19.6068 41.4713 19.689 41.4298C19.7301 41.3469 19.8123 41.3054 19.8534 41.2639C19.9356 41.2225 19.9767 41.181 20.0589 41.1395C20.0589 41.1395 20.1 41.1395 20.1 41.098L20.5933 41.2225L21.0865 41.098C21.0865 41.098 21.1276 41.098 21.1276 41.1395C21.2098 41.181 21.251 41.2225 21.3332 41.2639C21.4154 41.3054 21.4565 41.3883 21.4976 41.4298C21.5798 41.4713 21.662 41.5128 21.7442 41.5957C21.7853 41.6372 21.8264 41.6786 21.8675 41.6786L21.7853 41.7201L21.6209 41.7616L21.7853 41.886C21.8264 41.886 21.8264 41.9275 21.8675 41.9275L21.9086 41.9689C21.9497 42.0104 21.9908 42.0519 22.0319 42.0933C22.1142 42.1763 22.1553 42.3007 22.2375 42.3836C22.2786 42.5081 22.3608 42.591 22.4019 42.7154C22.443 42.7984 22.443 42.8813 22.4841 42.9642H22.3608H22.2375L22.2786 43.0887C22.2786 43.1301 22.3197 43.1716 22.3197 43.2131C22.3197 43.2545 22.3197 43.296 22.3608 43.3375C22.3608 43.4204 22.4019 43.5034 22.4019 43.5863C22.4019 43.6692 22.4019 43.7522 22.4019 43.8351C22.4019 43.8766 22.4019 43.9181 22.4019 43.9595C22.073 43.9595 22.0319 43.9181 22.0319 43.9181ZM22.4019 43.2131V43.1301C22.3608 43.0057 22.3608 42.8813 22.2786 42.7569C22.2375 42.6325 22.1964 42.5081 22.1142 42.3836C22.073 42.2592 21.9908 42.1763 21.9086 42.0519C21.8675 42.0104 21.8264 41.9689 21.7853 41.886C21.8264 41.886 21.8264 41.886 21.8675 41.886L21.9908 41.8445L21.9086 41.7201C21.8264 41.6372 21.7442 41.5542 21.662 41.4713C21.5798 41.3883 21.4976 41.3469 21.4154 41.3054C21.3743 41.2225 21.2921 41.181 21.2098 41.098C21.1276 41.0151 21.0454 40.9736 20.9632 40.9322C20.881 40.8907 20.7988 40.8492 20.7166 40.8492C20.6755 40.8492 20.6344 40.8077 20.5933 40.8077C20.5522 40.8077 20.5522 40.8077 20.5111 40.8077H20.47C20.47 40.7248 20.4289 40.5589 20.47 40.393C20.47 40.3516 20.4289 40.3516 20.3878 40.3516H20.3467C20.3055 40.3516 20.2644 40.3516 20.2644 40.393C20.3055 40.5589 20.3055 40.7248 20.2644 40.8077H20.2233C20.1822 40.8077 20.1822 40.8077 20.1411 40.8077C20.1 40.8077 20.0589 40.8077 20.0178 40.8492C19.9356 40.8907 19.8534 40.8907 19.7712 40.9322C19.689 40.9736 19.6068 41.0151 19.5246 41.098C19.4423 41.1395 19.4012 41.2225 19.319 41.3054C19.2368 41.3469 19.1546 41.4298 19.0724 41.4713C18.9902 41.5542 18.908 41.6372 18.8258 41.7201L18.7436 41.8445L18.8669 41.886C18.908 41.886 18.908 41.886 18.9491 41.886C18.908 41.9275 18.8669 41.9689 18.8258 42.0519C18.7436 42.1763 18.6614 42.2592 18.6203 42.3836C18.5791 42.5081 18.4969 42.6325 18.4558 42.7569C18.4147 42.8813 18.3736 43.0057 18.3325 43.1301V43.2131H18.4147H18.538C18.538 43.2545 18.538 43.296 18.4969 43.3375C18.4969 43.4204 18.4969 43.5034 18.4558 43.5863C18.4558 43.6692 18.4558 43.7522 18.4558 43.8351C18.4558 43.9181 18.4558 44.001 18.4969 44.084V44.1669L18.5791 44.1254L18.6203 44.084L18.6614 44.0425C18.6614 44.084 18.6614 44.1254 18.7025 44.1669C18.7436 44.2498 18.7436 44.3328 18.7847 44.4157C18.8258 44.5816 18.908 44.7475 18.9491 44.8719L18.9902 44.9548L19.0724 44.9134C19.1135 44.9134 19.1135 44.8719 19.1546 44.8719C19.1957 44.9134 19.1957 44.9548 19.2368 44.9963C19.2779 45.0793 19.319 45.1207 19.3601 45.2037C19.4423 45.3281 19.5657 45.4525 19.6479 45.5769L19.689 45.6184L19.7712 45.5354L19.8123 45.494L19.8534 45.4525C19.8945 45.494 19.8945 45.494 19.9356 45.5354C19.9767 45.5769 20.0178 45.6184 20.0589 45.7013C20.1 45.7428 20.1411 45.7843 20.1822 45.8257C20.2233 45.8672 20.3055 45.9916 20.3055 45.9916C20.3055 45.9916 20.4289 45.8672 20.4289 45.8257C20.47 45.7843 20.5111 45.7428 20.5522 45.7013C20.5933 45.6599 20.6344 45.6184 20.6755 45.5354C20.7166 45.494 20.7166 45.494 20.7577 45.4525L20.7988 45.494L20.8399 45.5354L20.9221 45.6184L20.9632 45.5769C21.0865 45.4525 21.1687 45.3281 21.251 45.2037C21.2921 45.1207 21.3332 45.0793 21.3743 44.9963C21.4154 44.9548 21.4154 44.9134 21.4565 44.8719C21.4976 44.8719 21.4976 44.9134 21.5387 44.9134L21.6209 44.9548L21.662 44.8719C21.7031 44.706 21.7853 44.5816 21.8264 44.4157C21.8675 44.3328 21.8675 44.2498 21.9086 44.1669C21.9086 44.1254 21.9497 44.084 21.9497 44.0425L21.9908 44.084L22.0319 44.1254L22.1142 44.1669V44.084C22.1142 44.001 22.1553 43.9181 22.1553 43.8351C22.1553 43.7522 22.1553 43.6692 22.1553 43.5863C22.1553 43.5034 22.1553 43.4204 22.1142 43.3375C22.1142 43.296 22.1142 43.2545 22.073 43.2131H22.1964H22.4019Z" fill="#C08961"/>
<path fill-rule="evenodd" clip-rule="evenodd" d="M20.1821 45.162V45.0791L20.2232 45.0376L20.3465 45.2864L20.511 45.0376L20.5521 45.0791V45.162L20.3465 45.5767L20.1821 45.162Z" fill="#C08961"/>
<path fill-rule="evenodd" clip-rule="evenodd" d="M19.4424 44.7059V44.54H19.5246L19.7712 44.9547L20.059 44.7059L20.1001 44.7889V44.9133L19.7712 45.2036L19.4424 44.7059Z" fill="#C08961"/>
<path fill-rule="evenodd" clip-rule="evenodd" d="M20.6348 44.9133V44.7889L20.6759 44.7059L20.9636 44.9547L21.2102 44.54H21.2513V44.7059L20.9636 45.2036L20.6348 44.9133Z" fill="#C08961"/>
<path fill-rule="evenodd" clip-rule="evenodd" d="M19.8535 44.2909V44.2079L19.9768 44.125L20.3468 44.5397L20.7578 44.125L20.84 44.2079V44.2909L20.3468 44.7885L19.8535 44.2909Z" fill="#C08961"/>
<path fill-rule="evenodd" clip-rule="evenodd" d="M19.0312 44.0837V43.7519L19.1135 43.7104V43.9178L19.2368 44.2496L19.4423 44.0837L19.5245 44.2496V44.291L19.1957 44.5399L19.0312 44.0837Z" fill="#C08961"/>
<path fill-rule="evenodd" clip-rule="evenodd" d="M21.21 44.291V44.2496L21.2922 44.0837L21.4977 44.2496L21.621 43.9178V43.7104L21.7032 43.7519V44.0837L21.5388 44.5399L21.21 44.291Z" fill="#C08961"/>
<path fill-rule="evenodd" clip-rule="evenodd" d="M19.2783 43.6692V43.3789L19.3605 43.3374V43.4618L19.6483 43.918L20.1004 43.5862L20.2237 43.6277V43.7521L19.6483 44.1668L19.2783 43.6692Z" fill="#C08961"/>
<path fill-rule="evenodd" clip-rule="evenodd" d="M20.5112 43.7521V43.6277L20.6345 43.5862L21.0456 43.918L21.3744 43.4618V43.3374L21.4566 43.3789V43.6692L21.0867 44.1668L20.5112 43.7521Z" fill="#C08961"/>
<path fill-rule="evenodd" clip-rule="evenodd" d="M26.677 38.4853C25.6083 38.3194 25.2384 38.3194 23.3887 38.3194H13.0303V37.9047L13.0714 37.7803L21.2101 24.7998H18.7027C16.7297 24.7998 15.4554 25.256 14.7156 26.2099L14.5511 26.4172L14.099 26.2099V25.961L14.8389 21.7725L15.1266 21.8139C16.072 21.9383 16.9763 21.9383 18.7849 21.9383H27.2525V22.3531L27.2114 22.4775L19.0727 35.4164H22.2788C24.3752 35.4164 26.1016 34.7114 27.047 33.4673L27.2114 33.2599L27.6635 33.4673V33.7161L26.9648 38.5268L26.677 38.4853Z" fill="white"/>
<path fill-rule="evenodd" clip-rule="evenodd" d="M27.3756 33.6744L26.7179 38.1947C25.6492 38.0289 25.2381 38.0288 23.3884 38.0288H13.3589V37.9874L21.8265 24.4678H18.7436C16.8528 24.4678 15.373 24.8825 14.5098 26.0022L14.4687 25.9608L15.1264 22.0625C16.0718 22.1869 16.935 22.1869 18.8258 22.1869H26.9645V22.2284L18.497 35.7479H22.2786C24.5394 35.7479 26.3069 34.96 27.3345 33.6744H27.3756Z" fill="#004F40"/>
<path fill-rule="evenodd" clip-rule="evenodd" d="M20.3468 10.6997C14.5922 10.6997 9.24858 11.778 4.80927 13.6027C4.72706 13.6442 4.68596 13.7686 4.72706 13.8515C4.97369 14.3492 5.26142 14.8883 5.50805 15.3859C5.54916 15.4274 5.59026 15.4689 5.67247 15.4689H35.1034C35.1856 15.4689 35.2267 15.4274 35.2678 15.3859C35.5145 14.8883 35.7611 14.3077 36.0488 13.8515C36.0899 13.7686 36.0488 13.6442 35.9666 13.6027C31.4862 11.7365 26.1426 10.6997 20.3468 10.6997Z" fill="#C08961"/>
<path fill-rule="evenodd" clip-rule="evenodd" d="M39.2549 8.543C38.5973 8.70889 37.2819 10.0774 36.0077 9.53831C35.1856 9.16507 34.8979 8.33565 35.0212 6.22063C35.0212 6.01327 34.939 5.93033 34.7745 6.09621C33.8291 7.09152 32.7604 8.25271 30.9518 7.71358C29.2254 7.21593 28.9377 5.47415 28.7733 3.89825C28.7321 3.64942 28.6088 3.60795 28.4444 3.81531C27.0469 5.93033 25.6904 6.63534 24.2517 6.46945C21.9088 6.22063 21.0045 4.1056 20.4701 2.73706C20.3879 2.5297 20.2235 2.5297 20.1413 2.73706C19.6069 4.1056 18.7026 6.22063 16.3596 6.46945C14.921 6.63534 13.5645 5.93033 12.167 3.81531C12.0025 3.60795 11.8792 3.60795 11.8381 3.89825C11.6737 5.47415 11.386 7.17446 9.65957 7.71358C7.85097 8.25271 6.78224 7.09152 5.83684 6.09621C5.67242 5.93033 5.5491 5.9718 5.59021 6.22063C5.75463 8.33565 5.46689 9.16507 4.6037 9.53831C3.32945 10.0774 2.0141 8.75036 1.35642 8.543C1.23311 8.50153 1.19201 8.58448 1.27422 8.66742C2.17852 9.78714 3.00061 10.9483 3.7405 12.1925C3.7816 12.2754 3.86381 12.2754 3.94602 12.2754C8.63195 10.2848 14.2222 9.1236 20.2646 9.1236C26.307 9.1236 31.9383 10.2848 36.5831 12.2754C36.6654 12.3169 36.7476 12.2754 36.7887 12.1925C37.5286 10.9483 38.3506 9.78714 39.2549 8.66742C39.4194 8.58448 39.3783 8.50153 39.2549 8.543Z" fill="#C08961"/>
<path fill-rule="evenodd" clip-rule="evenodd" d="M36.5011 12.7315C31.7329 10.7408 26.1427 9.6626 20.3881 9.6626C14.5923 9.6626 9.04316 10.7408 4.23391 12.7315C4.19281 12.7315 4.1517 12.8144 4.19281 12.8559C4.23391 12.9803 4.31612 13.0632 4.35723 13.1876C4.39833 13.2291 4.43944 13.2291 4.48054 13.2291C9.16647 11.2385 14.6745 10.2017 20.3881 10.2017C26.1016 10.2017 31.5685 11.2385 36.2545 13.2291C36.2956 13.2291 36.3367 13.2291 36.3778 13.1876C36.4189 13.0632 36.5011 12.9803 36.5422 12.8559C36.5422 12.8144 36.5422 12.7315 36.5011 12.7315Z" fill="#83182D"/>
<path fill-rule="evenodd" clip-rule="evenodd" d="M20.3471 0C19.8949 0 19.4839 0.373239 19.4839 0.870892C19.4839 1.32707 19.8538 1.74178 20.3471 1.74178C20.7992 1.74178 21.2103 1.36854 21.2103 0.870892C21.2103 0.373239 20.8403 0 20.3471 0Z" fill="#004F40"/>
<path fill-rule="evenodd" clip-rule="evenodd" d="M4.97368 3.98145C4.60374 3.98145 4.2749 4.27174 4.2749 4.68645C4.2749 5.10116 4.56264 5.39146 4.97368 5.39146C5.34362 5.39146 5.67246 5.10116 5.67246 4.68645C5.67246 4.27174 5.38473 3.98145 4.97368 3.98145Z" fill="#004F40"/>
<path fill-rule="evenodd" clip-rule="evenodd" d="M0.493256 7.05029C0.246628 7.05029 0 7.29912 0 7.58942C0 7.87971 0.246628 8.08707 0.493256 8.08707C0.780989 8.08707 0.986513 7.83824 0.986513 7.58942C1.02762 7.29912 0.780989 7.05029 0.493256 7.05029Z" fill="#004F40"/>
<path fill-rule="evenodd" clip-rule="evenodd" d="M11.7146 1.24414C11.3035 1.24414 10.9336 1.57591 10.9336 2.03209C10.9336 2.4468 11.2624 2.82004 11.7146 2.82004C12.1256 2.82004 12.4956 2.48827 12.4956 2.03209C12.4956 1.57591 12.1256 1.24414 11.7146 1.24414Z" fill="#004F40"/>
<path fill-rule="evenodd" clip-rule="evenodd" d="M35.7198 3.98145C35.3498 3.98145 35.021 4.27174 35.021 4.68645C35.021 5.10116 35.3087 5.39146 35.7198 5.39146C36.0897 5.39146 36.4186 5.10116 36.4186 4.68645C36.4186 4.27174 36.0897 3.98145 35.7198 3.98145Z" fill="#004F40"/>
<path fill-rule="evenodd" clip-rule="evenodd" d="M40.2003 7.05029C39.9126 7.05029 39.707 7.29912 39.707 7.54795C39.707 7.83824 39.9537 8.0456 40.2003 8.0456C40.488 8.0456 40.6935 7.79677 40.6935 7.54795C40.7347 7.29912 40.488 7.05029 40.2003 7.05029Z" fill="#004F40"/>
<path fill-rule="evenodd" clip-rule="evenodd" d="M29.0198 1.24414C28.6087 1.24414 28.2388 1.57591 28.2388 2.03209C28.2388 2.4468 28.5676 2.82004 29.0198 2.82004C29.4308 2.82004 29.8007 2.48827 29.8007 2.03209C29.7596 1.57591 29.4308 1.24414 29.0198 1.24414Z" fill="#004F40"/>
<path fill-rule="evenodd" clip-rule="evenodd" d="M59.3554 30.7716L58.821 34.9187C57.9167 34.7528 57.5879 34.7529 56.067 34.7529H47.6816V34.7114L54.7105 22.3115H52.1209C50.5179 22.3115 49.3258 22.6848 48.5859 23.7216L48.5448 23.6801L49.1203 20.1136C49.9013 20.238 50.6412 20.238 52.2032 20.238H58.9854V20.3209L51.9565 32.7208H55.1216C57.0124 32.7208 58.4922 31.9743 59.3143 30.8131L59.3554 30.7716ZM73.9475 27.5784C73.9475 24.0533 72.2622 22.0212 69.426 22.0212C66.7131 22.0212 65.0278 24.1777 65.0278 27.4539C65.0278 30.8546 66.5487 33.0111 69.5082 33.0111C72.0978 33.0111 73.9475 30.896 73.9475 27.5784ZM61.9861 27.6613C61.9861 22.9751 64.8634 19.8647 69.6315 19.8647C74.0709 19.8647 76.9893 22.8921 76.9893 27.371C76.9893 32.0158 73.9064 35.1676 69.3027 35.1676C64.699 35.1676 61.9861 31.9328 61.9861 27.6613ZM80.3188 34.7114C80.9764 33.9649 81.4697 33.1355 81.5519 31.684L82.0863 23.5971C82.1685 22.436 81.9218 20.8601 80.9764 20.3209V20.2795H85.7035C85.4569 20.6112 85.498 21.2333 86.0323 22.1871L88.0876 25.7122C88.7452 26.8319 89.1974 27.9516 89.3618 29.1543H89.444C89.7728 27.8687 90.3072 26.9148 90.9649 25.7122L92.979 22.1042C93.5134 21.1918 93.5545 20.5698 93.3078 20.2795H98.076V20.3209C97.1306 20.8601 96.8017 22.4774 96.884 23.5971L97.5416 31.684C97.6238 32.6793 98.0349 33.9649 98.7748 34.7114L98.7337 34.7529H94.0066V34.7114C94.4177 34.3381 94.7876 33.4258 94.7054 32.1402L94.3766 27.8272C94.2944 26.8319 94.2944 25.7536 94.4999 24.2607H94.4177C93.9655 25.6707 93.5134 26.6245 92.8146 27.7857L90.5127 31.684C89.7728 32.9281 89.5673 33.7575 89.5262 34.2137H89.3618C89.2796 33.7575 89.0741 32.9281 88.3342 31.7255L85.8679 27.7442C85.2102 26.666 84.7581 25.6707 84.3881 24.2192H84.3059C84.4703 25.7951 84.4703 26.9148 84.4292 27.7857L84.1826 32.0987C84.1004 33.4258 84.4703 34.3381 84.8814 34.6699V34.7114H80.3188ZM102.68 34.7114C103.214 34.3381 103.79 33.3428 103.79 31.6425V23.3898C103.79 21.648 103.214 20.6527 102.68 20.3209V20.2795H107.777V20.3209C107.242 20.6942 106.667 21.6895 106.667 23.3898V31.6425C106.667 33.3843 107.242 34.3796 107.777 34.7114V34.7529H102.68V34.7114ZM111.517 34.7114C112.052 34.3381 112.627 33.3428 112.627 31.6425V23.3068C112.627 22.1871 112.257 20.8601 111.517 20.3209V20.2795H116.203C116.244 20.6942 116.368 21.1503 117.066 22.2701L120.026 27.3295C120.642 28.3663 121.3 29.8593 121.917 31.4766H121.999C121.711 29.8178 121.67 28.3663 121.67 27.1636V23.4313C121.67 21.6895 121.136 20.6942 120.601 20.3624V20.3209H125.37C124.835 20.6942 124.26 21.6895 124.26 23.3898V31.6425C124.26 33.3428 124.835 34.3796 125.37 34.7114V34.7529H121.012C120.766 34.1723 120.396 33.4258 119.985 32.7622L117.066 27.9931C116.08 26.3757 115.545 25.173 114.929 23.2239H114.847C115.176 25.2145 115.217 26.5416 115.217 28.076V31.6011C115.217 33.3428 115.751 34.3381 116.285 34.6699V34.7114H111.517Z" fill="white"/>
</g>
<defs>
<clipPath id="clip0">
<rect width="256" height="53" fill="white"/>
</clipPath>
</defs>
</svg>
