<svg width="50" height="50" viewBox="0 0 50 50" fill="none" xmlns="http://www.w3.org/2000/svg">
<g clip-path="url(#clip0)">
<path d="M46.4593 22.3539V20.2959H47.4399C47.9792 20.2959 48.4165 19.8587 48.4165 19.3194C48.4165 18.78 47.9792 18.3428 47.4399 18.3428H43.5229C42.9836 18.3428 42.5463 18.78 42.5463 19.3194C42.5463 19.8587 42.9836 20.2959 43.5229 20.2959H44.5062V22.2462H40.0091V15.6236C40.0091 15.2983 39.8472 14.9944 39.5771 14.8129C37.4474 13.3821 34.4275 11.9844 31.2917 10.9782C28.9813 10.2368 26.6349 9.7105 24.346 9.41216V8.09917C24.346 5.70601 22.399 3.75903 20.006 3.75903C17.6113 3.75903 15.6631 5.70601 15.6631 8.09917V9.41265C13.3747 9.71099 11.0286 10.2373 8.71875 10.9783C5.58193 11.9847 2.56143 13.3824 0.431934 14.8131C0.161914 14.9945 0 15.2983 0 15.6236V34.9996C0 35.3249 0.161914 35.6288 0.431934 35.8102C1.16934 36.3056 2.01523 36.7965 2.93408 37.2691C0.936621 39.6023 0.935645 41.4507 0.935645 45.2648C0.935645 45.8041 1.37295 46.2414 1.91221 46.2414H13.1849C13.7241 46.2414 14.1614 45.8041 14.1614 45.2648C14.1614 43.6562 14.3803 42.3115 14.8431 41.094C16.5829 41.3608 18.2958 41.4992 19.9399 41.4992H20.068C21.7134 41.4992 23.4266 41.3609 25.1662 41.0939C25.629 42.3115 25.8479 43.6562 25.8479 45.2648C25.8479 45.8041 26.2852 46.2414 26.8244 46.2414H38.0971C38.6363 46.2414 39.0736 45.8041 39.0736 45.2648C39.0736 41.451 39.0728 39.6026 37.0757 37.2696C37.9946 36.7969 38.8398 36.3057 39.5774 35.8102C39.8475 35.6289 40.0094 35.3249 40.0094 34.9996V28.3769H43.8726V31.121C43.8726 31.6604 44.3099 32.0976 44.8491 32.0976H49.0234C49.5627 32.0976 50 31.6604 50 31.121V26.7664C50 24.6095 48.482 22.8018 46.4593 22.3539ZM29.8522 12.5821C30.6698 12.8237 31.4634 13.0867 32.2261 13.3658V37.2574C31.4433 37.5437 30.6517 37.8047 29.8522 38.041V12.5821ZM17.6163 8.09917C17.6163 6.78296 18.6884 5.71216 20.0061 5.71216C21.3223 5.71216 22.393 6.78296 22.393 8.09917V9.21304C20.8025 9.09595 19.2066 9.09604 17.6163 9.21323V8.09917ZM12.1101 12.0589C14.1246 11.5748 16.1805 11.2476 18.2497 11.1272C20.3298 11.0062 22.4171 11.108 24.4792 11.4021C25.6288 11.5662 26.7701 11.7874 27.8991 12.0586V17.0445C25.2073 16.7266 22.5755 16.5655 20.0612 16.5655C20.0249 16.5655 19.9891 16.5655 19.9525 16.5655C17.4352 16.5655 14.8021 16.7267 12.1101 17.0445V12.0589ZM12.1101 26.2895H15.6237C16.163 26.2895 16.6003 25.8523 16.6003 25.3129C16.6003 24.7736 16.163 24.3364 15.6237 24.3364H12.1101V19.0129C14.8059 18.686 17.4403 18.5187 19.9542 18.5187H20.0068C22.5363 18.5187 25.1853 18.6841 27.899 19.013V24.3364H24.3937C23.8544 24.3364 23.4171 24.7736 23.4171 25.3129C23.4171 25.8523 23.8544 26.2895 24.3937 26.2895H27.899V31.611C25.2217 31.9375 22.5885 32.1045 20.0576 32.1045C20.0229 32.1045 19.9881 32.1045 19.9534 32.1045C17.441 32.1045 14.8061 31.9374 12.1101 31.6103V26.2895ZM7.7832 13.3659C8.56055 13.0814 9.37002 12.8136 10.2043 12.5682L10.1576 38.0411C9.33975 37.7995 8.54609 37.5365 7.7832 37.2573V13.3659ZM1.95312 16.1527C3.03145 15.4703 4.34756 14.7825 5.83008 14.1426V18.0682C4.4291 18.3635 3.1042 18.6926 1.95312 19.0306V16.1527ZM1.95312 21.0715C3.06631 20.723 4.39707 20.3778 5.83008 20.0657V24.3364H1.95312V21.0715ZM1.95312 26.2895H5.83008V30.5577C4.38799 30.2439 3.05723 29.899 1.95312 29.5525V26.2895ZM1.95312 34.4705V31.5935C3.09717 31.9296 4.42188 32.2583 5.83008 32.5549V36.4804C5.55605 36.3622 5.28721 36.2424 5.0251 36.1212C4.98789 36.1007 4.94941 36.0833 4.91035 36.0679C3.80039 35.5495 2.80293 35.0083 1.95312 34.4705ZM12.2336 44.2882H2.89014C2.90371 41.1515 3.05742 39.9555 4.77061 38.1456C6.02295 38.6994 7.35977 39.2089 8.71875 39.645C10.1036 40.0893 11.5015 40.4559 12.8919 40.7433C12.519 41.8266 12.3035 42.9867 12.2336 44.2882ZM20.0639 39.546C20.0239 39.546 19.9838 39.546 19.9438 39.546C17.2994 39.546 14.6257 39.1689 12.1101 38.5643V33.5787C14.8024 33.8965 17.4354 34.0578 19.9517 34.0578H20.0595C22.5927 34.0578 25.2248 33.8968 27.899 33.5796V38.5644C25.3834 39.1689 22.7093 39.546 20.0639 39.546ZM37.119 44.2882H27.7755C27.7056 42.9864 27.49 41.8262 27.117 40.7427C27.9644 40.5675 28.8144 40.3632 29.6625 40.1294C30.3247 39.9482 30.9829 39.7493 31.6346 39.5331C32.287 39.3168 32.9509 39.1014 33.5839 38.8324C34.1479 38.6132 34.701 38.3835 35.2387 38.1457C36.9518 39.9555 37.1055 41.1516 37.119 44.2882ZM38.056 34.4706C37.2049 35.0092 36.2052 35.551 35.093 36.0701C35.0565 36.0846 35.0207 36.101 34.9859 36.1201C34.7229 36.2416 34.4539 36.362 34.1791 36.4805V32.5569C35.5896 32.2585 36.9141 31.9291 38.056 31.5935V34.4706ZM38.056 29.5525C36.9545 29.8982 35.6238 30.2437 34.1791 30.5592V26.2895H38.056V29.5525ZM38.056 24.3364H34.1791V20.0657C35.6121 20.3779 36.9429 20.7231 38.056 21.0715V24.3364ZM38.056 19.0306C36.905 18.6926 35.5801 18.3635 34.1791 18.0682V14.1427C35.6616 14.7826 36.9776 15.4704 38.056 16.1528V19.0306ZM48.0469 30.1445H45.8254V27.4003C45.8254 26.861 45.3881 26.4238 44.8488 26.4238H40.0091V24.1994H45.4827C46.8967 24.1994 48.0469 25.3509 48.0469 26.7664V30.1445Z" fill="#004F40"/>
<path d="M20.9852 25.313C20.9852 24.7736 20.5479 24.3364 20.0086 24.3364H20.0059C19.4666 24.3364 19.0308 24.7736 19.0308 25.313C19.0308 25.8523 19.4693 26.2896 20.0087 26.2896C20.548 26.2896 20.9852 25.8523 20.9852 25.313Z" fill="#004F40"/>
</g>
<defs>
<clipPath id="clip0">
<rect width="50" height="50" fill="white"/>
</clipPath>
</defs>
</svg>
