<svg width="50" height="50" viewBox="0 0 50 50" fill="none" xmlns="http://www.w3.org/2000/svg">
<g clip-path="url(#clip0)">
<path d="M49.6221 32.5687C48.269 31.518 46.1262 30.9376 43.253 30.8437C41.2691 30.7788 38.959 30.9655 36.7919 31.3594C35.9047 28.9634 34.2372 27.0664 32.0298 25.966C29.5463 24.7279 26.6639 24.6299 23.9137 25.6898C23.4604 25.8645 23.2045 26.3456 23.313 26.819C23.3184 26.8429 23.3248 26.8661 23.3304 26.8898C21.491 26.541 19.5351 26.7271 17.663 27.4495C17.2099 27.6243 16.9542 28.1053 17.0626 28.5785C17.0681 28.6023 17.0744 28.6258 17.08 28.6495C15.2414 28.3011 13.2856 28.4871 11.4129 29.2088C10.9595 29.3835 10.7035 29.865 10.8123 30.3386C10.8178 30.3622 10.824 30.3853 10.8296 30.4089C8.9911 30.0603 7.03621 30.2465 5.16492 30.9685C4.7119 31.1433 4.45614 31.6242 4.56453 32.0975C4.90711 33.5938 5.52899 34.9351 6.36854 36.0669C3.66287 37.0508 1.42508 39.1347 0.0930497 41.9655C-0.113689 42.4049 0.0337723 42.9294 0.439143 43.1966C2.4116 44.4968 4.60506 45.1627 6.77889 45.1626C7.47928 45.1626 8.17742 45.0908 8.86571 44.9515C8.73768 46.3572 8.90535 47.8283 9.39305 49.2858C9.5282 49.6897 9.90555 49.9526 10.3185 49.9526C10.377 49.9526 10.4363 49.9474 10.4956 49.9364C12.4702 49.5737 14.2347 48.7108 15.6208 47.4547C15.6286 47.4785 15.6355 47.5024 15.6435 47.5264C15.7787 47.9303 16.156 48.1932 16.569 48.1932C16.6275 48.1932 16.6868 48.1879 16.7461 48.177C18.7209 47.8142 20.4846 46.9517 21.8689 45.6964C21.8765 45.7197 21.8833 45.743 21.8911 45.7663C22.0261 46.1705 22.4036 46.4337 22.8168 46.4336C22.8752 46.4336 22.9345 46.4283 22.9937 46.4175C24.97 46.0548 26.7347 45.1923 28.1194 43.9367C28.127 43.9601 28.1338 43.9834 28.1416 44.0067C28.2765 44.4109 28.6541 44.6741 29.0673 44.674C29.1257 44.674 29.1849 44.6687 29.2442 44.6579C32.0652 44.1401 34.4316 42.6249 35.9074 40.3911C37.2765 38.3188 37.7675 35.8001 37.3099 33.2508C41.5105 32.5114 46.4348 32.566 48.4245 34.111C48.8505 34.4418 49.464 34.3646 49.7947 33.9387C50.1252 33.5129 50.048 32.8994 49.6221 32.5687ZM11.6148 32.6416C12.572 34.6336 14.0954 36.1992 15.9715 37.1452L13.2212 37.9195C10.1834 37.6088 7.71151 35.5352 6.70613 32.5123C8.37664 32.0458 10.0818 32.0893 11.6148 32.6416ZM9.29989 42.8303C7.01112 43.5363 4.51014 43.2446 2.2661 42.0187C3.54403 39.7979 5.52606 38.2432 7.84481 37.6532C8.82127 38.4898 9.95848 39.1207 11.2081 39.5006C10.3397 40.4765 9.69774 41.6076 9.29989 42.8303ZM15.1271 45.1399C14.1084 46.4111 12.6756 47.339 11.0046 47.8145C10.2885 44.7106 11.3188 41.6511 13.7504 39.7996L16.4993 39.0257C15.3907 40.8116 14.9061 42.9418 15.1271 45.1399ZM12.9545 30.7529C14.6261 30.2865 16.3313 30.3298 17.8638 30.8815C18.8201 32.8739 20.3436 34.4397 22.2207 35.3857L19.471 36.1599C16.4343 35.849 13.9619 33.7756 12.9545 30.7529ZM21.3761 43.3796C20.3594 44.6512 18.927 45.5793 17.2551 46.0551C16.5389 42.9509 17.5694 39.8911 20.0014 38.0396L22.75 37.2658C21.6414 39.0516 21.1562 41.1815 21.3761 43.3796ZM19.2043 28.9933C20.8752 28.5265 22.5806 28.5697 24.1143 29.1221C25.0706 31.1144 26.5939 32.6801 28.4709 33.6262L25.721 34.4004C22.682 34.0891 20.2096 32.0156 19.2043 28.9933ZM27.6265 41.62C26.6098 42.8917 25.1765 43.8198 23.5034 44.2956C22.7892 41.1909 23.8207 38.1308 26.2522 36.2798L29.0006 35.5061C27.8919 37.2918 27.4067 39.4219 27.6265 41.62ZM25.4548 27.2339C27.4225 26.6842 29.4197 26.8473 31.1585 27.7141C32.8483 28.5563 34.1437 29.997 34.8763 31.8228L31.9707 32.6408C28.9321 32.3293 26.46 30.256 25.4548 27.2339ZM34.2774 39.3147C33.2487 40.8718 31.663 41.9951 29.7539 42.5365C29.0394 39.4313 30.0711 36.371 32.5033 34.5199L35.4046 33.7031C35.7401 35.7189 35.3477 37.6947 34.2774 39.3147Z" fill="#004F40"/>
<path d="M1.57559 9.19787C3.56865 7.65021 8.49229 7.59621 12.6898 8.33752C12.5231 9.26496 12.4807 10.1941 12.5662 11.1058C12.6166 11.6428 13.093 12.0368 13.6297 11.9869C14.1667 11.9365 14.5611 11.4604 14.5108 10.9235C14.4452 10.2232 14.4743 9.50764 14.5942 8.79016L17.498 9.60773C19.9294 11.4592 20.9597 14.5187 20.2439 17.6224C19.6372 17.4502 19.0611 17.2196 18.5237 16.9332C18.0477 16.6796 17.4563 16.8599 17.2026 17.336C16.949 17.8119 17.1294 18.4034 17.6054 18.6571C18.5688 19.1702 19.6272 19.5362 20.7517 19.7446C20.9973 19.7902 21.2551 19.7383 21.4641 19.6017C21.6772 19.4624 21.8007 19.2601 21.8784 19.0227C23.2644 20.2788 25.0289 21.1417 27.0036 21.5044C27.2487 21.5495 27.506 21.4976 27.7146 21.3613C27.9275 21.222 28.0512 21.0196 28.1288 20.7822C29.515 22.0388 31.2797 22.9017 33.2543 23.264C33.4994 23.309 33.7565 23.2571 33.9651 23.1206C34.1781 22.9814 34.3017 22.779 34.3794 22.5417C35.7656 23.7983 37.5302 24.6612 39.5048 25.0235C39.9774 25.1102 40.4553 24.8278 40.6074 24.3721C41.0939 22.9144 41.2607 21.4435 41.1325 20.0381C41.8197 20.1773 42.5168 20.2488 43.2168 20.2488C45.3894 20.2488 47.5846 19.5832 49.5602 18.284C49.9664 18.0168 50.1143 17.4915 49.9069 17.0517C48.5726 14.2209 46.3341 12.1371 43.6298 11.1533C44.4706 10.0208 45.0933 8.67863 45.4358 7.18137C45.5442 6.70773 45.288 6.22648 44.8346 6.05207C42.959 5.33068 41.0034 5.14533 39.1676 5.49455C39.1733 5.47023 39.1798 5.44631 39.1854 5.4218C39.2938 4.94816 39.0374 4.46691 38.584 4.2925C36.7086 3.57111 34.753 3.38576 32.917 3.73498C32.9228 3.71066 32.9292 3.68674 32.9349 3.66223C33.0433 3.18859 32.7869 2.70734 32.3335 2.53293C30.4583 1.81164 28.503 1.62629 26.6673 1.97531C26.6728 1.95197 26.679 1.92902 26.6844 1.90558C26.7928 1.43215 26.5368 0.951092 26.0836 0.776385C23.3346 -0.28299 20.4533 -0.185431 17.9706 1.05109C15.7622 2.15099 14.0935 4.04836 13.205 6.44523C11.0397 6.0508 8.73027 5.86389 6.74551 5.92912C3.87344 6.02365 1.73106 6.60432 0.377638 7.65529C-0.0483381 7.98605 -0.125487 8.59953 0.205275 9.02561C0.536037 9.45148 1.14961 9.52873 1.57559 9.19787ZM26.4941 19.3822C24.8232 18.9066 23.3904 17.9787 22.3716 16.7075C22.5927 14.5095 22.1082 12.3795 20.9997 10.5936L23.7448 11.3664C26.1788 13.2174 27.2104 16.2774 26.4941 19.3822ZM32.7444 21.1418C31.0737 20.6664 29.641 19.7386 28.622 18.467C28.843 16.2688 28.3582 14.1388 27.2491 12.353L29.9957 13.1263C32.4287 14.977 33.4601 18.0368 32.7444 21.1418ZM38.9943 22.9012C37.3238 22.4257 35.891 21.4978 34.8722 20.2262C35.0928 18.0281 34.6079 15.8983 33.4993 14.1128L36.2468 14.8863C38.6776 16.7357 39.7086 19.795 38.9943 22.9012ZM47.7326 17.1049C45.4845 18.3306 42.9828 18.6222 40.6975 17.9163C40.2994 16.6932 39.6572 15.5619 38.7887 14.5863C40.0382 14.2062 41.1753 13.5754 42.1519 12.7394C44.4696 13.3288 46.4524 14.8836 47.7326 17.1049ZM43.2935 7.59699C42.2884 10.6189 39.8154 12.693 36.7755 13.0061L34.0244 12.2316C35.9018 11.2854 37.4255 9.71994 38.382 7.72863C39.9119 7.17414 41.6179 7.1299 43.2935 7.59699ZM37.0431 5.83742C36.038 8.8591 33.5654 10.9331 30.5257 11.2465L27.7742 10.4719C29.6514 9.5257 31.175 7.96037 32.1315 5.96906C33.6614 5.41457 35.3676 5.37053 37.0431 5.83742ZM30.7926 4.07795C29.7876 7.09934 27.3152 9.17346 24.2759 9.48693L21.5252 8.71252C23.4022 7.76633 24.9259 6.2007 25.8822 4.2092C27.4118 3.6551 29.1176 3.61105 30.7926 4.07795ZM18.841 2.79953C20.5791 1.9339 22.5753 1.77131 24.5421 2.32053C23.537 5.34094 21.065 7.41437 18.0267 7.72746L15.1201 6.9091C15.8537 5.08264 17.1504 3.64162 18.841 2.79953Z" fill="#004F40"/>
<path d="M14.522 14.1424C14.0396 14.3836 13.844 14.9702 14.0853 15.4525L14.088 15.4581C14.2588 15.7996 14.6019 15.9959 14.9589 15.9959C15.1062 15.9959 15.2559 15.9625 15.3968 15.8921C15.8792 15.6509 16.0733 15.0615 15.8321 14.5791C15.5909 14.0968 15.0045 13.9012 14.522 14.1424Z" fill="#004F40"/>
</g>
<defs>
<clipPath id="clip0">
<rect width="50" height="50" fill="white"/>
</clipPath>
</defs>
</svg>
