<svg width="50" height="50" viewBox="0 0 50 50" fill="none" xmlns="http://www.w3.org/2000/svg">
<path d="M29.6023 30.4651C31.4993 30.4651 33.0426 28.9207 33.0426 27.0221C33.0426 25.1251 31.4993 23.5818 29.6023 23.5818C27.7055 23.5818 26.1621 25.1251 26.1621 27.0221C26.1621 28.9206 27.7055 30.4651 29.6023 30.4651ZM29.6023 25.535C30.4224 25.535 31.0895 26.2021 31.0895 27.0222C31.0895 27.8437 30.4224 28.5121 29.6023 28.5121C28.7824 28.5121 28.1152 27.8437 28.1152 27.0222C28.1152 26.2021 28.7824 25.535 29.6023 25.535Z" fill="#004F40"/>
<path d="M38.9891 23.582C37.0921 23.582 35.5488 25.1254 35.5488 27.0224C35.5488 28.9208 37.0921 30.4653 38.9891 30.4653C40.886 30.4653 42.4293 28.9209 42.4293 27.0224C42.4293 25.1253 40.886 23.582 38.9891 23.582ZM38.9891 28.5121C38.169 28.5121 37.502 27.8438 37.502 27.0223C37.502 26.2022 38.169 25.5351 38.9891 25.5351C39.8091 25.5351 40.4762 26.2021 40.4762 27.0223C40.4762 27.8438 39.8091 28.5121 38.9891 28.5121Z" fill="#004F40"/>
<path d="M39.5511 33.406H27.1387C26.5993 33.406 26.1621 33.8433 26.1621 34.3826C26.1621 34.9218 26.5993 35.3591 27.1387 35.3591H39.5511C40.0904 35.3591 40.5276 34.9218 40.5276 34.3826C40.5276 33.8433 40.0904 33.406 39.5511 33.406Z" fill="#004F40"/>
<path d="M39.5511 37.3811H27.1387C26.5993 37.3811 26.1621 37.8184 26.1621 38.3577C26.1621 38.8969 26.5993 39.3342 27.1387 39.3342H39.5511C40.0904 39.3342 40.5276 38.8969 40.5276 38.3577C40.5276 37.8184 40.0904 37.3811 39.5511 37.3811Z" fill="#004F40"/>
<path d="M12.4566 18.0604C12.0894 17.7419 11.5439 17.7419 11.1768 18.0604C9.63702 19.3962 8.68243 21.1417 8.43761 23.0038C7.61749 22.745 6.72843 22.628 5.80167 22.6726C5.31593 22.6959 4.9214 23.0731 4.87618 23.5572C4.75802 24.8227 4.94825 26.0508 5.41564 27.1444C5.12032 27.2908 4.9088 27.5814 4.87628 27.9275C4.68234 29.9923 5.29962 31.9282 6.61446 33.3788C7.7088 34.5862 9.18546 35.3372 10.8401 35.5483V37.1123C10.8401 37.6516 11.2774 38.0889 11.8167 38.0889C12.3561 38.0889 12.7933 37.6516 12.7933 37.1123V35.5483C14.5118 35.3275 16.0377 34.5288 17.1343 33.2603C18.3696 31.831 18.947 29.9375 18.76 27.9284C18.7277 27.5819 18.516 27.291 18.2205 27.1444C18.6879 26.0508 18.8781 24.8226 18.7599 23.5572C18.7147 23.0731 18.3201 22.696 17.8344 22.6726C16.9074 22.628 16.0184 22.7451 15.1982 23.004C14.9529 21.1427 13.9975 19.3971 12.4566 18.0604ZM10.84 33.5733C9.74874 33.3812 8.78351 32.8636 8.06153 32.0671C7.31173 31.2398 6.8795 30.1808 6.80597 29.0207C8.64308 29.222 10.1627 30.3155 10.8401 31.9722V33.5733H10.84ZM10.84 28.7063C9.94962 27.9371 8.8548 27.4078 7.64239 27.1724C7.15157 26.4442 6.86544 25.5775 6.80646 24.6506C8.6464 24.8537 10.1647 25.9508 10.84 27.6089V28.7063ZM11.8175 25.3866C11.399 24.8246 10.8971 24.3379 10.3298 23.9376C10.337 22.5769 10.8602 21.2546 11.8167 20.1695C12.7746 21.2553 13.2987 22.5777 13.3063 23.9377C12.7388 24.3379 12.2365 24.8246 11.8175 25.3866ZM15.6566 31.9828C14.9311 32.8223 13.9309 33.3729 12.7933 33.5733V31.9728C13.4728 30.3158 14.9932 29.2222 16.83 29.0207C16.7593 30.1449 16.3557 31.1739 15.6566 31.9828ZM15.9939 27.1723C14.7805 27.4079 13.6847 27.9383 12.7933 28.7086V27.6018C13.4721 25.9469 14.9923 24.8536 16.8297 24.6507C16.7706 25.5775 16.4846 26.4441 15.9939 27.1723Z" fill="#004F40"/>
<path d="M45.0948 18.7704V16.4894C45.0948 15.0977 43.9626 13.9653 42.5709 13.9653H40.6215V2.72051C40.6215 1.22041 39.4011 0 37.901 0H13.5605C12.0604 0 10.84 1.22041 10.84 2.72051V6.22559C8.23848 6.32383 5.82832 6.8123 3.97178 7.62764C0.689062 9.06934 0 11.0942 0 12.5391V43.523C0 44.0623 0.437207 44.4996 0.976562 44.4996H2.56338V47.8801C2.56338 49.049 3.51309 49.9999 4.68037 49.9999H7.13301C8.30039 49.9999 9.25 49.049 9.25 47.8801V44.4996H14.3833V47.8801C14.3833 49.049 15.3343 49.9999 16.5031 49.9999H18.9529C20.1218 49.9999 21.0728 49.049 21.0728 47.8801V44.4996H22.6596H24.5979V47.8801C24.5979 49.049 25.5488 49.9999 26.7177 49.9999H29.1675C30.3363 49.9999 31.2873 49.049 31.2873 47.8801V44.4996H40.3957V47.8801C40.3957 49.049 41.3454 49.9999 42.5128 49.9999H44.9653C46.1327 49.9999 47.0824 49.049 47.0824 47.8801V44.4996H49.0234C49.5628 44.4996 50 44.0623 50 43.523V24.5695C50 21.6592 47.8747 19.2371 45.0948 18.7704ZM42.5709 15.9185C42.8803 15.9185 43.1417 16.1799 43.1417 16.4894V18.6879H36.1481V16.4894C36.1481 16.1745 36.4042 15.9185 36.7189 15.9185H42.5709ZM7.29688 47.8802C7.29688 47.9706 7.22178 48.0469 7.13301 48.0469H4.68037C4.59307 48.0469 4.5165 47.9689 4.5165 47.8802V44.4997H7.29688V47.8802ZM19.1196 47.8802C19.1196 47.9689 19.0417 48.0469 18.9529 48.0469H16.5031C16.4144 48.0469 16.3364 47.9689 16.3364 47.8802V44.4997H19.1196V47.8802ZM21.683 13.4699H16.1986C15.6593 13.4699 15.2221 13.9072 15.2221 14.4465C15.2221 14.9857 15.6593 15.423 16.1986 15.423H21.683V19.6645V42.5466H1.95312V15.423H7.42637C7.96572 15.423 8.40293 14.9857 8.40293 14.4465C8.40293 13.9072 7.96572 13.4699 7.42637 13.4699H1.95312V12.5391C1.95312 9.69424 7.03574 8.15928 11.8181 8.15928C16.6004 8.15928 21.683 9.69424 21.683 12.5391V13.4699ZM19.6643 7.62764C17.807 6.81201 15.3959 6.32354 12.7933 6.22549V2.72051C12.7933 2.29736 13.1375 1.95312 13.5606 1.95312H37.9011C38.3242 1.95312 38.6685 2.29736 38.6685 2.72051V13.9652H36.7191C35.3274 13.9652 34.1952 15.0976 34.1952 16.4893V18.6878H23.6361V12.5391C23.6361 11.0942 22.9471 9.06934 19.6643 7.62764ZM29.3342 47.8802C29.3342 47.9689 29.2562 48.0469 29.1675 48.0469H26.7177C26.6289 48.0469 26.551 47.9689 26.551 47.8802V44.4997H29.3342V47.8802ZM45.1293 47.8802C45.1293 47.9706 45.0542 48.0469 44.9653 48.0469H42.5128C42.4239 48.0469 42.3488 47.9706 42.3488 47.8802V44.4997H45.1293V47.8802ZM48.0469 42.5466H23.6361V20.6409H44.1183C46.2845 20.6409 48.0469 22.4033 48.0469 24.5695V42.5466Z" fill="#004F40"/>
<path d="M11.814 15.4229H11.8167C12.3561 15.4229 12.7919 14.9855 12.7919 14.4463C12.7919 13.907 12.3533 13.4697 11.814 13.4697C11.2746 13.4697 10.8374 13.907 10.8374 14.4463C10.8374 14.9855 11.2746 15.4229 11.814 15.4229Z" fill="#004F40"/>
</svg>
