<svg width="50" height="50" viewBox="0 0 50 50" fill="none" xmlns="http://www.w3.org/2000/svg">
<g clip-path="url(#clip0)">
<path d="M6.14356 33.0933C5.6043 33.0933 5.16699 33.5305 5.16699 34.0698V34.0754C5.16699 34.6147 5.6043 35.0492 6.14356 35.0492C6.68282 35.0492 7.12012 34.6093 7.12012 34.0699C7.12012 33.5306 6.68291 33.0933 6.14356 33.0933Z" fill="#004F40"/>
<path d="M49.0049 39.8254H46.1507L47.7386 32.8341C49.0296 32.4803 49.9813 31.2973 49.9813 29.8955C49.9813 28.2153 48.6145 26.8483 46.9343 26.8483H43.3074V3.0748C43.3075 1.37939 41.9294 0 40.2355 0H13.6204C11.925 0 10.5457 1.37939 10.5457 3.0748V9.08232H7.29805C6.12314 9.08232 5.16728 10.0383 5.16728 11.2132V12.791C5.16728 13.6141 5.63672 14.3292 6.32148 14.684V16.8686C6.32148 19.1902 4.92832 20.1603 3.31533 21.2834C1.77012 22.3594 0.0185547 23.5789 0.0185547 26.0893V46.3327C0.0185547 48.3549 1.6624 50 3.68301 50H23.5579C25.5784 50 27.2222 48.3549 27.2222 46.3328V26.0893C27.2222 23.5789 25.4707 22.3594 23.9254 21.2834C22.3123 20.1603 20.9193 19.1902 20.9193 16.8686V14.684C21.6042 14.3292 22.0735 13.6142 22.0735 12.791V11.2132C22.0735 10.0382 21.1177 9.08232 19.9428 9.08232H16.6952V6.14687H22.5363C23.0756 6.14687 23.5129 5.70967 23.5129 5.17031C23.5129 4.63096 23.0756 4.19375 22.5363 4.19375H15.7187C15.1794 4.19375 14.7421 4.63096 14.7421 5.17031V9.08232H12.4987V3.0748C12.4987 2.45635 13.0019 1.95312 13.6203 1.95312H40.2354C40.8523 1.95312 41.3543 2.45635 41.3543 3.0748V26.8483H39.1139V5.17031C39.1139 4.63096 38.6766 4.19375 38.1373 4.19375H31.3084C30.7691 4.19375 30.3318 4.63096 30.3318 5.17031C30.3318 5.70967 30.7691 6.14687 31.3084 6.14687H37.1607V26.8483H33.5339C31.8537 26.8483 30.4868 28.2153 30.4868 29.8955C30.4868 31.2973 31.4386 32.4803 32.7296 32.8341L34.3175 39.8254H31.4633C30.924 39.8254 30.4867 40.2626 30.4867 40.802C30.4867 41.3413 30.924 41.7785 31.4633 41.7785H39.2588V43.9361H36.2937C34.6211 43.9361 33.2604 45.2956 33.2604 46.9667V49.0234C33.2604 49.5628 33.6977 50 34.2369 50C34.7762 50 35.2135 49.5628 35.2135 49.0234V46.9667C35.2135 46.3727 35.698 45.8893 36.2937 45.8893H39.2588V49.0234C39.2588 49.5628 39.6961 50 40.2354 50C40.7746 50 41.2119 49.5628 41.2119 49.0234V45.8893H44.1438C44.7395 45.8893 45.224 46.3726 45.224 46.9667V49.0234C45.224 49.5628 45.6613 50 46.2006 50C46.7398 50 47.1771 49.5628 47.1771 49.0234V46.9667C47.1771 45.2957 45.8164 43.9361 44.1438 43.9361H41.2119V41.7785H49.0047C49.5439 41.7785 49.9813 41.3413 49.9813 40.802C49.9813 40.2626 49.5441 39.8254 49.0049 39.8254ZM1.97168 26.0893C1.97168 24.6682 2.86055 23.9801 4.43145 22.8862C6.14365 21.694 8.27461 20.2103 8.27461 16.8686V14.922H10.5456V26.3067C7.72383 25.8173 4.54199 25.9874 1.97168 26.8176V26.0893ZM25.269 46.3328C25.269 47.2779 24.5015 48.0469 23.5579 48.0469H3.68301C2.73945 48.0469 1.97178 47.2779 1.97178 46.3328V28.8909C5.20977 27.6344 10.1888 27.7135 13.2057 29.1298C15.0926 30.0148 17.5134 30.4573 19.934 30.4573C21.7936 30.4573 23.6521 30.195 25.269 29.6727V46.3328ZM12.4987 26.7717V14.922H14.7421V27.655C14.497 27.5644 14.2602 27.4671 14.0354 27.3616C13.555 27.1361 13.0396 26.9397 12.4987 26.7717ZM22.8093 22.8862C24.3802 23.9801 25.269 24.6682 25.269 26.0893V27.6005C22.866 28.5328 19.5035 28.7288 16.6952 28.1889V14.922H18.9662V16.8686C18.9662 20.2103 21.0971 21.6939 22.8093 22.8862ZM19.9428 11.0354C20.0407 11.0354 20.1204 11.1151 20.1204 11.2132V12.791C20.1204 12.8874 20.0391 12.9688 19.9428 12.9688H7.29805C7.20342 12.9688 7.12041 12.8856 7.12041 12.791V11.2132C7.12041 11.1168 7.20176 11.0354 7.29805 11.0354H19.9428ZM33.534 30.9896C32.9308 30.9896 32.44 30.4988 32.44 29.8955C32.44 29.2922 32.9308 28.8015 33.534 28.8015H46.9344C47.5376 28.8015 48.0283 29.2922 48.0283 29.8955C48.0283 30.4988 47.5376 30.9896 46.9344 30.9896H33.534ZM44.1478 39.8254H36.3205L34.7572 32.9426H45.711L44.1478 39.8254Z" fill="#004F40"/>
<path d="M26.9238 4.1936C26.3846 4.1936 25.9473 4.63081 25.9473 5.17017C25.9473 5.70952 26.3846 6.14673 26.9238 6.14673H26.9266C27.4658 6.14673 27.9017 5.70952 27.9017 5.17017C27.9017 4.63081 27.4632 4.1936 26.9238 4.1936Z" fill="#004F40"/>
<path d="M11.5225 41.1763C10.9832 41.1763 10.5459 41.6135 10.5459 42.1528V42.1584C10.5459 42.6978 10.9832 43.1322 11.5225 43.1322C12.0617 43.1322 12.499 42.6923 12.499 42.1529C12.499 41.6136 12.0618 41.1763 11.5225 41.1763Z" fill="#004F40"/>
<path d="M16.1309 33.0986C15.5916 33.0986 15.1543 33.5358 15.1543 34.0752V34.0808C15.1543 34.6201 15.5916 35.0546 16.1309 35.0546C16.6701 35.0546 17.1074 34.6147 17.1074 34.0753C17.1074 33.5359 16.6701 33.0986 16.1309 33.0986Z" fill="#004F40"/>
<path d="M19.4561 42.1474V42.1529C19.4561 42.6923 19.8934 43.1268 20.4326 43.1268C20.9719 43.1268 21.4092 42.6868 21.4092 42.1475C21.4092 41.6081 20.9719 41.1709 20.4326 41.1709C19.8934 41.1709 19.4561 41.608 19.4561 42.1474Z" fill="#004F40"/>
</g>
<defs>
<clipPath id="clip0">
<rect width="50" height="50" fill="white"/>
</clipPath>
</defs>
</svg>
