<svg width="24" height="24" viewBox="0 0 24 24" fill="none" xmlns="http://www.w3.org/2000/svg">
<g clip-path="url(#clip0)">
<path d="M13.6205 23.9531H9.76957C9.12634 23.9531 8.6031 23.4309 8.6031 22.7889V14.12H6.3564C5.71318 14.12 5.18994 13.5976 5.18994 12.9558V9.24115C5.18994 8.59918 5.71318 8.07697 6.3564 8.07697H8.6031V6.2168C8.6031 4.37238 9.1834 2.80316 10.2811 1.67908C11.3837 0.549866 12.9246 -0.046875 14.7372 -0.046875L17.6741 -0.0421143C18.3162 -0.0410156 18.8385 0.481201 18.8385 1.12207V4.57105C18.8385 5.21301 18.3155 5.73523 17.6725 5.73523L15.6951 5.73596C15.092 5.73596 14.9385 5.85663 14.9056 5.89362C14.8515 5.95496 14.7871 6.12836 14.7871 6.60718V8.07678H17.5238C17.7299 8.07678 17.9295 8.1275 18.101 8.22308C18.4711 8.42944 18.7011 8.81964 18.7011 9.24133L18.6997 12.956C18.6997 13.5976 18.1764 14.1198 17.5332 14.1198H14.7871V22.7889C14.7871 23.4309 14.2637 23.9531 13.6205 23.9531ZM10.0128 22.5461H13.3772V13.4901C13.3772 13.0615 13.7267 12.7128 14.156 12.7128H17.2899L17.2912 9.48395H14.1558C13.7265 9.48395 13.3772 9.13532 13.3772 8.70667V6.60718C13.3772 6.0575 13.4332 5.43237 13.8489 4.96253C14.3512 4.39453 15.1429 4.32898 15.6947 4.32898L17.4288 4.32825V1.3645L14.7361 1.36011C11.8231 1.36011 10.0128 3.22119 10.0128 6.2168V8.70667C10.0128 9.13513 9.66352 9.48395 9.23422 9.48395H6.59968V12.7128H9.23422C9.66352 12.7128 10.0128 13.0615 10.0128 13.4901V22.5461ZM17.6714 1.36487H17.6715H17.6714Z" fill="white"/>
</g>
<defs>
<clipPath id="clip0">
<rect width="24" height="24" fill="white"/>
</clipPath>
</defs>
</svg>
