<svg width="18" height="10" viewBox="0 0 18 10" fill="none" xmlns="http://www.w3.org/2000/svg">
<g clip-path="url(#clip0)">
<path d="M4.64748 1.53588e-05C4.94257 1.5333e-05 5.20076 0.112798 5.42207 0.300768C5.90158 0.751895 5.90158 1.46618 5.49584 1.9549L2.72945 5.00002L5.45896 8.04513C5.90158 8.53385 5.8647 9.24814 5.38519 9.69926C4.90568 10.1504 4.20486 10.1128 3.76224 9.62408L0.295024 5.78949C-0.110714 5.33836 -0.110714 4.66167 0.295024 4.21054L3.79912 0.375955C4.02043 0.112797 4.31552 1.53878e-05 4.64748 1.53588e-05Z" fill="white"/>
<path d="M2.76638 3.83458L9.2213 3.83458C9.84835 3.83458 10.3647 4.36089 10.3647 4.99999C10.3647 5.63909 9.84835 6.16541 9.2213 6.16541L2.76639 6.16541C2.13934 6.16541 1.62294 5.63909 1.62294 4.99999C1.62294 4.36089 2.13934 3.83458 2.76638 3.83458Z" fill="white"/>
<path d="M11.8401 3.83458L13.3893 3.83458C14.0163 3.83458 14.5327 4.36089 14.5327 4.99999C14.5327 5.63909 14.0163 6.16541 13.3893 6.16541L11.8401 6.16541C11.213 6.16541 10.6966 5.63909 10.6966 4.99999C10.6966 4.36089 11.1762 3.83458 11.8401 3.83458Z" fill="white"/>
<path d="M16.1557 3.83458L16.8566 3.83458C17.4836 3.83458 18 4.36089 18 4.99999C18 5.63909 17.4836 6.16541 16.8566 6.16541L16.1557 6.16541C15.5287 6.16541 15.0123 5.63909 15.0123 4.99999C15.0123 4.36089 15.5287 3.83458 16.1557 3.83458Z" fill="white"/>
<path d="M4.64748 1.53588e-05C4.94257 1.5333e-05 5.20076 0.112798 5.42207 0.300768C5.90158 0.751895 5.90158 1.46618 5.49584 1.9549L2.72945 5.00002L5.45896 8.04513C5.90158 8.53385 5.8647 9.24814 5.38519 9.69926C4.90568 10.1504 4.20486 10.1128 3.76224 9.62408L0.295024 5.78949C-0.110714 5.33836 -0.110714 4.66167 0.295024 4.21054L3.79912 0.375955C4.02043 0.112797 4.31552 1.53878e-05 4.64748 1.53588e-05Z" fill="white"/>
</g>
<defs>
<clipPath id="clip0">
<rect width="18" height="10" fill="white" transform="translate(18 10) rotate(180)"/>
</clipPath>
</defs>
</svg>
