<svg width="17" height="17" viewBox="0 0 17 17" fill="none" xmlns="http://www.w3.org/2000/svg">
<g clip-path="url(#clip0)">
<path d="M14.314 10.1337C13.9432 9.7491 13.4961 9.54346 13.0221 9.54346C12.552 9.54346 12.101 9.7453 11.715 10.1299L10.5073 11.3295C10.4079 11.2762 10.3086 11.2267 10.213 11.1772C10.0754 11.1086 9.94547 11.0439 9.83463 10.9754C8.70334 10.2594 7.67524 9.32639 6.68918 8.11918C6.21143 7.51747 5.89039 7.01098 5.65725 6.49686C5.97065 6.21125 6.26112 5.9142 6.54394 5.62858C6.65096 5.52195 6.75797 5.41151 6.86499 5.30488C7.66759 4.50515 7.66759 3.46931 6.86499 2.66958L5.8216 1.62993C5.70311 1.51187 5.58081 1.39001 5.46615 1.26815C5.23684 1.03203 4.99606 0.788306 4.74763 0.559812C4.3769 0.19422 3.93356 0 3.46728 0C3.001 0 2.55001 0.19422 2.16782 0.559812C2.164 0.56362 2.164 0.56362 2.16017 0.567428L0.860713 1.87366C0.371505 2.36111 0.0925028 2.9552 0.0313517 3.64449C-0.0603749 4.7565 0.268312 5.79234 0.52056 6.47021C1.13972 8.13441 2.06463 9.67675 3.44435 11.3295C5.11836 13.3212 7.13252 14.894 9.43333 16.0022C10.3124 16.4173 11.4857 16.9086 12.7966 16.9924C12.8769 16.9962 12.961 17 13.0374 17C13.9203 17 14.6617 16.6839 15.2427 16.0556C15.2465 16.0479 15.2542 16.0441 15.258 16.0365C15.4567 15.7966 15.686 15.5795 15.9268 15.3472C16.0912 15.1911 16.2593 15.0273 16.4237 14.856C16.802 14.4637 17.0008 14.0067 17.0008 13.5383C17.0008 13.0661 16.7982 12.6129 16.4122 12.2321L14.314 10.1337ZM15.6822 14.1438C15.6784 14.1438 15.6784 14.1476 15.6822 14.1438C15.5332 14.3038 15.3803 14.4485 15.2159 14.6084C14.9675 14.8445 14.7153 15.0921 14.4783 15.3701C14.0923 15.7814 13.6375 15.9756 13.0412 15.9756C12.9839 15.9756 12.9228 15.9756 12.8654 15.9718C11.7303 15.8994 10.6755 15.4577 9.88432 15.0806C7.7211 14.0372 5.8216 12.5558 4.24313 10.6783C2.93985 9.11313 2.06845 7.666 1.49133 6.11223C1.13589 5.16398 1.00595 4.42518 1.06328 3.72827C1.1015 3.28271 1.27348 2.91331 1.5907 2.59722L2.89399 1.29861C3.08126 1.12343 3.28 1.02823 3.47492 1.02823C3.7157 1.02823 3.91062 1.17294 4.03293 1.2948C4.03675 1.29861 4.04057 1.30242 4.04439 1.30623C4.27753 1.5233 4.4992 1.74798 4.73234 1.9879C4.85082 2.10977 4.97312 2.23163 5.09543 2.3573L6.13882 3.39695C6.54394 3.80063 6.54394 4.17384 6.13882 4.57751C6.02798 4.68795 5.92097 4.79839 5.81013 4.90502C5.48909 5.23253 5.18333 5.53719 4.85082 5.83423C4.84318 5.84185 4.83553 5.84565 4.83171 5.85327C4.50303 6.18078 4.56418 6.50067 4.63297 6.71774C4.63679 6.72917 4.64061 6.74059 4.64444 6.75202C4.91579 7.40703 5.29799 8.02397 5.87892 8.75896L5.88275 8.76277C6.9376 10.0576 8.04979 11.0668 9.27663 11.8398C9.43333 11.9388 9.59385 12.0188 9.74673 12.095C9.88432 12.1635 10.0143 12.2283 10.1251 12.2968C10.1404 12.3044 10.1557 12.3159 10.171 12.3235C10.3009 12.3882 10.4232 12.4187 10.5493 12.4187C10.8666 12.4187 11.0653 12.2207 11.1303 12.1559L12.4374 10.8535C12.5673 10.724 12.7737 10.5679 13.0145 10.5679C13.2515 10.5679 13.4464 10.7164 13.5649 10.8459C13.5687 10.8497 13.5687 10.8497 13.5725 10.8535L15.6784 12.9518C16.072 13.3403 16.072 13.7401 15.6822 14.1438Z" fill="white"/>
</g>
<defs>
<clipPath id="clip0">
<rect width="17" height="17" fill="white"/>
</clipPath>
</defs>
</svg>
