<svg width="18" height="10" viewBox="0 0 18 10" fill="none" xmlns="http://www.w3.org/2000/svg">
<g clip-path="url(#clip0)">
<path d="M13.3525 9.99998C13.0574 9.99998 12.7992 9.8872 12.5779 9.69923C12.0984 9.24811 12.0984 8.53382 12.5042 8.0451L15.2705 4.99998L12.541 1.95487C12.0984 1.46615 12.1353 0.751864 12.6148 0.300737C13.0943 -0.150391 13.7951 -0.112797 14.2378 0.375925L17.705 4.21051C18.1107 4.66164 18.1107 5.33833 17.705 5.78946L14.2009 9.62405C13.9796 9.8872 13.6845 9.99998 13.3525 9.99998Z" fill="white"/>
<path d="M15.2336 6.16542L8.7787 6.16542C8.15165 6.16542 7.63525 5.63911 7.63525 5.00001C7.63525 4.36091 8.15165 3.83459 8.7787 3.83459L15.2336 3.83459C15.8607 3.83459 16.3771 4.36091 16.3771 5.00001C16.3771 5.63911 15.8607 6.16542 15.2336 6.16542Z" fill="white"/>
<path d="M6.15991 6.16542H4.61073C3.98368 6.16542 3.46729 5.63911 3.46729 5.00001C3.46729 4.36091 3.98368 3.83459 4.61073 3.83459L6.15991 3.83459C6.78696 3.83459 7.30335 4.36091 7.30335 5.00001C7.30335 5.63911 6.82384 6.16542 6.15991 6.16542Z" fill="white"/>
<path d="M1.84426 6.16542H1.14344C0.516393 6.16542 0 5.63911 0 5.00001C0 4.36091 0.516393 3.83459 1.14344 3.83459L1.84426 3.83459C2.47131 3.83459 2.98771 4.36091 2.98771 5.00001C2.98771 5.63911 2.47131 6.16542 1.84426 6.16542Z" fill="white"/>
<path d="M13.3525 9.99998C13.0574 9.99998 12.7992 9.8872 12.5779 9.69923C12.0984 9.24811 12.0984 8.53382 12.5042 8.0451L15.2705 4.99998L12.541 1.95487C12.0984 1.46615 12.1353 0.751864 12.6148 0.300737C13.0943 -0.150391 13.7951 -0.112797 14.2378 0.375925L17.705 4.21051C18.1107 4.66164 18.1107 5.33833 17.705 5.78946L14.2009 9.62405C13.9796 9.8872 13.6845 9.99998 13.3525 9.99998Z" fill="white"/>
</g>
<defs>
<clipPath id="clip0">
<rect width="18" height="10" fill="white"/>
</clipPath>
</defs>
</svg>
