<svg width="16" height="16" viewBox="0 0 16 16" fill="none" xmlns="http://www.w3.org/2000/svg">
<g clip-path="url(#clip0)">
<path d="M10.6851 1.83023C8.24385 -0.608614 4.27023 -0.608614 1.82898 1.83023C-0.612265 4.27148 -0.612265 8.2451 1.82898 10.6863C4.00165 12.859 7.38774 13.0916 9.82659 11.3962C9.87695 11.6384 9.99445 11.871 10.1839 12.0604L13.7403 15.6144C14.2582 16.1324 15.0952 16.1324 15.6108 15.6144C16.1287 15.0964 16.1287 14.2595 15.6108 13.7439L12.0568 10.1875C11.8698 10.0005 11.6371 9.88299 11.3949 9.83023C13.0904 7.39139 12.8578 4.00529 10.6851 1.83023ZM9.5628 9.56405C7.74025 11.3866 4.77383 11.3866 2.95368 9.56405C1.13354 7.7415 1.13354 4.77748 2.95368 2.95493C4.77623 1.13239 7.74025 1.13239 9.5628 2.95493C11.3853 4.77748 11.3853 7.7415 9.5628 9.56405Z" fill="#004F40"/>
</g>
<defs>
<clipPath id="clip0">
<rect width="16" height="16" fill="white"/>
</clipPath>
</defs>
</svg>
