<svg width="16" height="16" viewBox="0 0 16 16" fill="none" xmlns="http://www.w3.org/2000/svg">
<g clip-path="url(#clip0)">
<path d="M13.8921 5.72948C12.3245 4.16191 10.2164 3.27002 7.9732 3.27002C5.72995 3.27002 3.62185 4.13488 2.05428 5.72948L-0.188965 7.97272L2.10833 10.27C3.6759 11.8376 5.78401 12.7295 8.02725 12.7295C10.2705 12.7295 12.3786 11.8646 13.9462 10.27L16.1894 8.02678L13.8921 5.72948ZM15.0543 8.02678L13.3786 9.70245C10.4327 12.6484 5.62184 12.6484 2.6759 9.70245L0.94617 7.97272L2.62185 6.29705C5.56779 3.3511 10.3786 3.3511 13.3245 6.29705L15.0543 8.02678Z" fill="#004F40"/>
<path d="M7.73016 5.70264C6.62205 5.70264 5.70312 6.62156 5.70312 7.72966C5.70312 7.94588 5.89231 8.13507 6.10853 8.13507C6.32475 8.13507 6.51394 7.94588 6.51394 7.72966C6.51394 7.05399 7.05448 6.51345 7.73016 6.51345C7.94637 6.51345 8.13556 6.32426 8.13556 6.10804C8.13556 5.89183 7.94637 5.70264 7.73016 5.70264Z" fill="#004F40"/>
<path d="M8.00021 4.35107C6.00021 4.35107 4.35156 5.99972 4.35156 7.99972C4.35156 9.99973 6.00021 11.6484 8.00021 11.6484C10.0002 11.6484 11.6489 9.99973 11.6489 7.99972C11.6489 5.99972 10.0002 4.35107 8.00021 4.35107ZM10.838 7.99972C10.838 9.56729 9.56778 10.8376 8.00021 10.8376C6.43264 10.8376 5.16237 9.56729 5.16237 7.99972C5.16237 6.43216 6.43264 5.16189 8.00021 5.16189C9.56778 5.16189 10.838 6.43216 10.838 7.99972Z" fill="#004F40"/>
</g>
<defs>
<clipPath id="clip0">
<rect width="16" height="16" fill="white"/>
</clipPath>
</defs>
</svg>
